<?xml version="1.0" encoding="utf-8"?>
<!-- Generator: Adobe Illustrator 22.0.1, SVG Export Plug-In . SVG Version: 6.00 Build 0)  -->
<svg version="1.1" id="Layer_1" xmlns="http://www.w3.org/2000/svg" xmlns:xlink="http://www.w3.org/1999/xlink" x="0px" y="0px"
	 viewBox="0 0 154.3 125.3" style="enable-background:new 0 0 154.3 125.3;" xml:space="preserve">
<style type="text/css">
	.st0{fill:none;stroke:#000000;stroke-width:0.25;stroke-linecap:round;stroke-linejoin:round;stroke-miterlimit:10;}
</style>
<path class="st0" d="M125,4.5v12.3c0,4-1.8,8-4.8,10.8c-3.1,2.8-6.3,5.7-9.4,8.5l-2.7,2.4c-3.1,2.8-6.3,5.6-9.4,8.5
	c-1.8,1.6-2.8,4-2.8,6.4c-0.1,16.1,0,32.3,0,48.4c0,2.3,1,4.5,2.6,6.1l11.2,11.2"/>
<path class="st0" d="M138.4,118.7l-24.2-16.9c-2.3-1.6-3.7-4.3-3.7-7.1c0-10.6,0-21.3,0-31.9c0-2.7,1.4-5.3,3.5-6.9
	c11.4-8.4,22.9-16.7,34.3-25.2c3.6-2.7,5.9-7.2,5.9-11.7V4.5"/>
<g>
	<path class="st0" d="M47.1,119.1l11.2-11.2c1.6-1.6,2.5-3.8,2.6-6.1c0-16.1,0.1-32.3,0-48.4c0-2.4-1.1-4.8-2.8-6.4
		c-3.1-2.8-6.3-5.7-9.4-8.5L46,36.1c-3.1-2.8-6.3-5.6-9.4-8.5c-3-2.7-4.7-6.7-4.8-10.8V4.5"/>
	<path class="st0" d="M2.5,4.5V19c0,4.5,2.3,9,5.9,11.7c11.4,8.4,22.9,16.7,34.3,25.2c2.2,1.6,3.5,4.2,3.5,6.9c0,10.6,0,21.3,0,31.9
		c0,2.8-1.4,5.5-3.7,7.1l-24.2,16.9"/>
</g>
<line class="st0" x1="78.4" y1="1.8" x2="78.4" y2="123.8"/>
</svg>
