<?xml version="1.0" encoding="utf-8"?>
<!-- Generator: Adobe Illustrator 22.0.1, SVG Export Plug-In . SVG Version: 6.00 Build 0)  -->
<svg version="1.1" id="Layer_1" xmlns="http://www.w3.org/2000/svg" xmlns:xlink="http://www.w3.org/1999/xlink" x="0px" y="0px"
	 viewBox="0 0 377.8 465.8" style="enable-background:new 0 0 377.8 465.8;" xml:space="preserve">
<style type="text/css">
	.st0{fill:#A5C24B;}
	.st1{fill:#A0BE44;}
	.st2{fill:#302419;}
	.st3{fill:#FFFFFF;}
</style>
<g id="UlqhZu.tif">
	<g>
		<path class="st0" d="M319.7,155.1c-4.7,5.4-9.8,10.2-17.6,10.6c-1.6,0.1-3.7,0.8-4.5-0.9c-0.6-1.3,1.1-2.6,2-3.7
			c5.3-6.3,12.4-7.7,20.2-7C319.7,154.4,319.7,154.8,319.7,155.1z"/>
		<path class="st1" d="M19.5,155.3c-0.9-1.1-1.8-2.1-2.8-3.2c0-0.3,0-0.7,0-1c2.4,0.1,4.8-0.1,7,1C22.6,153.7,19.6,152.5,19.5,155.3
			z"/>
		<path class="st0" d="M228.2,52.5c-4.1,6.8-12.6,10.7-19.9,9.3c-2.5-0.5-3.2-1.2-1.2-3.4C212.3,52.4,220.7,49.9,228.2,52.5z"/>
		<path class="st0" d="M142.2,8.7c5.7,8.1,5.7,16.5,0.3,24.1C136.6,25.7,136.4,16.9,142.2,8.7z"/>
		<path class="st0" d="M24.4,148.1c-6.1-7.9-7.4-15.8-2.9-24.5C28.3,130.3,29.4,138.9,24.4,148.1z"/>
		<path class="st0" d="M120.7,184.2c0.7-3.8,0.6-9.7,3.9-10.2c2.7-0.4,3.9,5.7,4.7,9.3c1,4.4-0.5,8.5-2.2,12.5
			c-0.8,1.8-1.7,1.8-2.8,0.2C122,192.4,121,188.5,120.7,184.2z"/>
		<path class="st0" d="M176.4,122.4c-6.3,6.7-12.8,9.8-21.1,7.9c-0.9-0.2-2.2,0.1-2.4-1.2c-0.2-1.2,0.9-1.7,1.6-2.3
			C160.5,121.1,167.6,119.8,176.4,122.4z"/>
		<path class="st0" d="M216.8,79.5c-6.1,8.2-13.6,10.9-22.5,8.4C197.9,80.4,207.7,76.6,216.8,79.5z"/>
		<path class="st0" d="M229.3,64.5c9,4.7,12.8,11.5,12.1,21.1C233.4,83.1,228.3,74.5,229.3,64.5z"/>
		<path class="st0" d="M276.7,213.4c-7.1-7.2-8.5-15-5.3-24C278.6,194.6,280.7,203.8,276.7,213.4z"/>
		<path class="st0" d="M292.4,122.8c-6.3,6.5-12.8,9.5-21.1,7.5c-0.9-0.2-2.2,0.1-2.5-1.2c-0.2-1.1,0.9-1.7,1.6-2.3
			C276.6,121.3,283.6,119.9,292.4,122.8z"/>
		<path class="st0" d="M200,135.6c4,7.1,4.5,13.5,1.5,20.2c-0.7,1.7-2,3-3.5,3.1c-2,0.1-1.6-2.2-2.1-3.4
			C193.5,148.4,195.2,142,200,135.6z"/>
		<path class="st0" d="M104.4,47.2c-6.9-5.4-9-14.4-5.4-23.1C106.1,28.8,108.4,38.9,104.4,47.2z"/>
		<path class="st0" d="M207.5,176.3c7.1-7.4,14.9-8.8,23.8-5.7C227.7,177.4,218.8,179.7,207.5,176.3z"/>
		<path class="st0" d="M228,82.3c8.6,5.1,12.2,13.9,9.4,22.7C229.3,99.5,226.5,92.1,228,82.3z"/>
		<path class="st0" d="M271.8,151.2c4.4,9.9,3.4,17.1-3.2,23.9C263.7,168.3,264.7,159.4,271.8,151.2z"/>
		<path class="st0" d="M30.5,140.7c4.9-7.5,11.3-10.7,19.5-10.4c1,0,2.2-0.1,2.7,0.9c0.7,1.3-0.7,2.1-1.4,2.9
			C46,140.2,39.2,142.2,30.5,140.7z"/>
		<path class="st0" d="M289.5,129.6c5.6,6.4,7.5,12.9,5.5,20.4c-0.3,1.2-0.3,2.9-2,3c-1.4,0.1-1.9-1.2-2.5-2.2
			C286.2,144.2,285.6,137.4,289.5,129.6z"/>
		<path class="st0" d="M191.8,156.1c-0.1,1-0.1,2-0.2,3c-0.1,1.1,0,2.4-1.5,2.8c-1.2,0.3-1.8-0.7-2.5-1.4c-4.7-5-6.7-10.9-5.5-17.8
			c0.2-0.9,0.4-2.3,1.1-2.6c1.3-0.6,2,0.8,2.7,1.6C189.9,145.8,191.8,150.6,191.8,156.1z"/>
		<path class="st0" d="M157.9,65.9c3.9-6.8,13.6-10.8,21.9-9.3C175.8,64.8,166.1,68.9,157.9,65.9z"/>
		<path class="st0" d="M164.7,94c0.3-7.6,3.8-13,9.9-17c1.4-0.9,2.9-1.7,2.8,1.1c-0.3,7.4-3.1,13.5-9.4,17.8c-0.8,0.5-1.6,1.5-2.6,1
			C164,96.3,164.8,94.9,164.7,94z"/>
		<path class="st0" d="M231.5,112.8c-0.8,2.8,0.5,7.8-4,8c-3.6,0.2-3.6-4.6-4.3-7.4c-1-3.8-0.3-7.6,1.2-11.2c1.2-3,2.7-2.6,4.1-0.2
			C230.3,105.1,231.5,108.6,231.5,112.8z"/>
		<path class="st0" d="M265.9,149.5c-8.7,2.5-15.8,0.8-21.8-4.8c-0.7-0.6-1.8-1.3-1.2-2.4c0.3-0.6,1.4-0.9,2.1-1
			C253.2,140.1,260.3,142.2,265.9,149.5z"/>
		<path class="st0" d="M248.9,42c0.2,2.7-0.3,5.8-1.7,8.7c-0.5,1-0.9,2.2-2.4,2.1c-1.3-0.1-1.4-1.3-1.8-2.1
			c-2.9-5.8-3-11.8-0.2-17.7c0.5-1.1,0.6-2.8,2.5-2.6c1.4,0.1,1.7,1.5,2.1,2.5C248.6,35.6,249.4,38.4,248.9,42z"/>
		<path class="st0" d="M63.1,169.7c-9.4-4-13.9-11.3-13-20.3C58.3,152,62.6,158.6,63.1,169.7z"/>
		<path class="st0" d="M42,146.7c3.8-7,11.6-11.2,18.9-10.5c0.9,0.1,2.1-0.2,2.5,1c0.4,1.1-0.3,1.9-1,2.6
			C57,146.2,50.2,148.2,42,146.7z"/>
		<path class="st0" d="M173.3,145c-6.1-0.4-11.2-2.5-15.1-7c-0.6-0.7-1.7-1.5-1.2-2.5c0.5-1.1,1.5-1.6,2.8-1.7
			c7.2-0.3,12.8,2.8,17.2,8.4c0.5,0.6,1.3,1.4,0.5,2.1C176.2,145.4,174.5,144.8,173.3,145z"/>
		<path class="st0" d="M189.6,42c6.6,5.5,8.4,12.2,6.5,20.1c-0.2,1,0,2.6-1.4,3c-1.6,0.4-2.2-1.3-2.9-2.3
			C187.2,56.3,186.5,49.4,189.6,42z"/>
		<path class="st0" d="M283.8,166.4c-5.9-5.5-8-13.5-5.3-20.7c0.3-0.9,0.2-2.1,1.6-2.2c1.2-0.1,1.7,0.9,2.3,1.6
			C286.7,150.4,287.2,157.4,283.8,166.4z"/>
		<path class="st0" d="M46.2,117.8c-1.8-8.2-0.9-15.5,5-21.5c0.7-0.7,1.7-1.5,2.4-1.4c1.2,0.1,0.9,1.5,1,2.5
			C55.7,105.6,53.8,112.7,46.2,117.8z"/>
		<path class="st0" d="M198.3,24.1c-6.2-4.6-10.7-9.7-10.3-17.4c0.1-1.6-0.7-3.9,1-4.6c1.6-0.7,2.8,1.4,3.9,2.5
			C198.2,9.9,199.6,16.4,198.3,24.1z"/>
		<path class="st0" d="M87.9,43.4c-3.3-7.8-2.8-14.5,1.5-21c0.8-1.1,1.9-2.2,3.2-2s1.3,1.8,1.6,2.9C96,31,93.4,37.3,87.9,43.4z"/>
		<path class="st0" d="M309.5,116c1,7.9-0.9,14.2-6.4,19.1c-1,0.9-1.8,2.6-3.7,1.6c-1.7-0.9-1.2-2.4-1.1-3.9
			C298.8,125.2,302.5,119.9,309.5,116z"/>
		<path class="st0" d="M207.4,122.5c6.4,6.5,7.6,13.8,4.6,21.5c-1.2,3.2-1.7,2.4-3.2,0.5C205.2,139.9,203.8,129.9,207.4,122.5z"/>
		<path class="st0" d="M75.9,96.2c-3.8-7.2-2.4-16.7,2.7-20.6c2.2-1.7,3.6-1.7,4,1.3C83.6,84.4,81.9,91,75.9,96.2z"/>
		<path class="st0" d="M24.8,173.1c6.4-4.9,12.6-7,19.7-4.7c1.2,0.4,3.4,0.7,3.5,2.3c0.1,1.8-1.6,2.7-3.1,3.4
			C38.4,177.2,32.1,176.6,24.8,173.1z"/>
		<path class="st0" d="M146.7,39.7c-0.4-3,0-5.9,1.6-8.6c1.5-2.7,2.9-2.5,4.1,0.2c2.8,5.9,2.9,11.9,0.1,17.8c-0.5,1-0.7,2.3-2.3,2.2
			c-1.4-0.1-1.9-1.3-2.3-2.3C146.8,45.9,145.7,42.9,146.7,39.7z"/>
		<path class="st0" d="M211.3,96.3c-6.8,4.4-13.2,5.1-20,2.6c-1.7-0.6-3.3-1.6-3.3-3.3c-0.1-1.8,2-1.9,3.3-2.4
			C198.1,90.7,204.4,91.9,211.3,96.3z"/>
		<path class="st0" d="M243.1,20.8c-2.5,8.7-9.8,13.1-20.3,11.9C227,24.4,233.6,20.6,243.1,20.8z"/>
		<path class="st0" d="M285.7,181.4c11.3-1.9,17.2,0.7,21.2,9C298.2,192.1,291,189.2,285.7,181.4z"/>
		<path class="st0" d="M278.8,116.9c4.8-7.1,10.5-11.4,19-10.7c0.9,0.1,2.1-0.3,2.7,0.7c0.7,1.3-0.6,2.1-1.2,2.9
			C294,116.1,287.2,118.1,278.8,116.9z"/>
		<path class="st0" d="M223.5,133.5c-7.3-3.7-11.8-8.7-12.8-16.4c-0.2-1.3-0.3-2.7,1-3.6c1.5-1,2.5,0.4,3.4,1.1
			C221,119.3,224.1,125.2,223.5,133.5z"/>
		<path class="st0" d="M211.3,101.7c-2.2,9-9,14.8-18,15.4C194.4,108.5,201.9,102,211.3,101.7z"/>
		<path class="st0" d="M184.6,58.8c4.8,6.6,5.6,13.6,2.7,21.1c-0.3,0.9-0.6,2-1.8,2.1s-1.6-0.9-2.1-1.8
			C179.3,74.2,179.8,64.7,184.6,58.8z"/>
		<path class="st0" d="M195.5,103.7c-4.8,6.3-14.8,8.6-21.1,5.4c-2.9-1.5-1.5-2.7,0.2-3.8C181.1,101,187.9,100.9,195.5,103.7z"/>
		<path class="st0" d="M148.7,12.1c-0.2-2.8,1-5.9,2.3-8.9c1.3-3.1,2.9-1.9,4.2-0.1c3.1,4.3,2.2,15.6-1.4,19.9
			c-1.2,1.4-1.7,1.1-2.4-0.3C149.9,19.5,148.7,16.3,148.7,12.1z"/>
		<path class="st0" d="M243.5,197.6c6.5,6.2,10,12.5,7.4,21.1c-0.2,0.7,0.3,1.8-0.6,2.2c-1.2,0.5-1.7-0.6-2.3-1.3
			C242.7,213.4,240.6,206.5,243.5,197.6z"/>
		<path class="st0" d="M118.6,58.9c0.7,7.6-1.2,13.4-6.4,18.1c-1.2,1.1-2.3,2.7-4.2,1.8c-2.2-1.1-1.5-3.1-1.2-4.9
			C107.9,67.1,112,62.4,118.6,58.9z"/>
		<path class="st0" d="M65.9,68.8c-5.7-6.4-5.2-13.2-3-20.2c0.3-0.9,0.6-2.4,2.1-2.4c1.7,0,2.1,1.4,2.6,2.6
			C70.6,55.5,70.1,62,65.9,68.8z"/>
		<path class="st0" d="M89.2,51c-8.2,0.1-14.1-2.6-18.5-8.5c-1-1.3-1.6-2.7-0.8-4.1c0.9-1.7,2.4-0.5,3.6-0.3
			C81,39,85.6,43.8,89.2,51z"/>
		<path class="st0" d="M215.3,101.8c-2.4-9.9,0.8-17,8.6-22.4C226.4,88.4,223.9,95.2,215.3,101.8z"/>
		<path class="st0" d="M120.9,99.2c-5.8,6.4-12.3,9.1-20.2,7.9c-1.1-0.2-2.5-0.1-2.8-1.5c-0.2-1.1,0.7-1.8,1.5-2.4
			C105.6,98.1,112.4,96.4,120.9,99.2z"/>
		<path class="st0" d="M166.3,26.6c1.6,8,0.8,14.5-4,20.1c-0.8,1-1.6,2.5-3.1,2.1c-1.7-0.4-2-2.1-2.1-3.6
			C156.8,37.7,159.8,31.8,166.3,26.6z"/>
		<path class="st0" d="M254,174.1c-6.6,6.8-14.7,8.2-23.7,4.2C235.8,171.7,244.7,170,254,174.1z"/>
		<path class="st0" d="M76.6,123.4c-7.9,4.1-16.3,3.3-22.3-1.8c-0.6-0.5-1.5-1.2-1.5-1.8c0-1.2,1.3-1.2,2.2-1.5
			C63.3,115,69.8,119.4,76.6,123.4z"/>
		<path class="st0" d="M290.8,76.6c-0.4,3.5-0.2,9.4-3.1,9.5c-3.6,0.2-4.2-5.4-5.1-9c-0.8-3-0.2-5.9,0.5-8.8c0.3-1.2,0.3-2.8,2-3.1
			c1.5-0.2,2.2,0.9,3,2.1C290,70,290.9,73.1,290.8,76.6z"/>
		<path class="st0" d="M202.3,57.7c-0.9-8.1-1.9-15.1,4.7-20.4c0.8-0.7,1.2-2.3,2.7-1.7c1.4,0.6,1.6,2.1,1.7,3.4
			C211.6,46.3,208.9,52.2,202.3,57.7z"/>
		<path class="st0" d="M133.9,133.4c-4.8-6.6-6.5-12.8-4.4-19.9c0.4-1.4,1-2.7,2.4-2.9c1.6-0.2,2.7,1,3.3,2.5
			C138,119.8,137.6,126.3,133.9,133.4z"/>
		<path class="st0" d="M237.4,38.1c-5.7,6.7-11.9,12-21.6,7.7C220.4,38.3,229.4,35.1,237.4,38.1z"/>
		<path class="st0" d="M125.7,75.4c0.1-2.9,1.2-4.3,4-2.7c5.3,3.1,8.3,7.9,9.4,13.9c0.2,1,0.3,1.8-0.8,2.5c-1.1,0.8-2,0.8-3.1,0.1
			C129.9,86,126.8,81.4,125.7,75.4z"/>
		<path class="st0" d="M47.6,84.2c2.7-0.2,5.3,0.6,7.8,1.4c1,0.4,2.4,0.6,2.4,2.1c0,1.3-1,1.7-1.8,2.2c-5.5,3.2-11.3,3.1-17.3,1.6
			c-1.1-0.3-2.2-0.7-2.2-2.3c0-1.4,0.8-2.1,1.9-2.6C41.4,85.3,44.3,84,47.6,84.2z"/>
		<path class="st0" d="M115.7,26.5c0.4,1.8,0.3,3.5-0.3,5c-0.9,2-0.6,5.5-3.4,5.3c-2.1-0.1-2.9-3.2-3.6-5.3
			c-1.7-5.4-0.2-10.4,2.5-15.2c1.1-1.9,2.2-1.6,3.1,0.3C115.5,19.8,116.7,23,115.7,26.5z"/>
		<path class="st0" d="M299.9,153.2c0.4-7.3,3.1-13.2,9.3-17.2c1-0.6,2-1.4,3.2-0.6c1,0.7,1.7,1.7,1.3,3
			C312.1,144.5,308,151.9,299.9,153.2z"/>
		<path class="st0" d="M263.3,52.3c-0.8,7.7-4.2,13.5-10.9,17.3c-2.6,1.5-3.8,1.2-3.8-2.2C248.7,61.8,255.9,54,263.3,52.3z"/>
		<path class="st0" d="M83.7,59c-0.1,5.3-6.5,13.4-11.7,15c-2.2,0.7-2.4-0.4-2-1.9c1.4-5.9,3.6-11.5,8.8-15.3
			c1.1-0.8,2.2-1.3,3.7-0.7C84,56.7,83.7,57.9,83.7,59z"/>
		<path class="st0" d="M101,118.3c-2.9-0.3-7.3,0.6-7.9-2.2c-0.5-2.5,3.9-3.9,6.6-5c3.9-1.7,8-1.4,12.2-1c1.4,0.2,2,1,2.4,2.2
			c0.6,1.5-0.6,2.1-1.5,2.7C109.2,117.2,105.4,118.8,101,118.3z"/>
		<path class="st0" d="M253.2,108.2c-3.5,0.2-4.5-1.4-2.9-3.9c3.4-5.4,8.4-8.3,14.7-9.1c3.3-0.4,3.4,1.6,2.2,3.6
			C264.1,104.3,259.2,107.4,253.2,108.2z"/>
		<path class="st0" d="M116.8,178.1c-0.1,3-0.1,6-0.2,9c-0.7,0.4-0.6,0.7,0.1,1c-0.6,4.7-3.5,8-7,11c-3.7-7.6-1.8-15.4,5-22
			C115.2,178,116,178.1,116.8,178.1z"/>
		<path class="st0" d="M269.5,68.1c1.6,0.3,4.4-0.9,5.1,1.2c0.7,1.9-1.9,3.2-3.4,4.4c-4.1,3.5-8.9,5-14.3,4.5
			c-1-0.1-2.1-0.2-2.6-1.2c-0.6-1.2,0.5-1.7,1.1-2.5C258.8,70.1,263.5,68,269.5,68.1z"/>
		<path class="st0" d="M85,168.9c5.2-8.4,12.2-11.3,21.3-9.4C103.5,167.1,96.8,170.1,85,168.9z"/>
		<path class="st0" d="M285.1,96.5c0.3,4.3-1.5,7.7-4.1,10.8c-1.7,2.1-3.1,2.4-3.9-0.7c-1.4-6.1-1-11.8,2.5-17.2
			c0.6-0.9,1-2.3,2.5-2c1.4,0.3,1.6,1.6,1.8,2.7C284.5,92.3,284.8,94.4,285.1,96.5z"/>
		<path class="st0" d="M35.2,196.7c-0.4-7.1,1.6-13,7.3-17.2c1.1-0.8,2.3-2.3,3.9-1.1c1.6,1.1,1.6,2.7,1.3,4.5
			C46.1,189.9,40.2,192.8,35.2,196.7z"/>
		<path class="st0" d="M117.6,42.1c0.6,8.8-4.2,14.3-11.5,19.4c-1.1-6.6,0.2-11.9,4.3-16.4c0.4-0.4,0.8-0.8,1.2-1.2
			c0.3-0.3,0.5-0.5,0.8-0.8c0.4-0.3,0.8-0.7,1.2-1h-0.1C114.9,42,116.3,42.1,117.6,42.1z"/>
		<path class="st0" d="M196.8,132.5c-0.7,0.9-1.4,1.6-2.6,1.7c-1.1,0-2.1,0-2.4,1.3c-0.9,0.6-2,1.7-3.1,1.2c-1.5-0.7-0.2-2.1,0-3.1
			c1.8-8.4,8-14.4,15-14.5l-0.1-0.1c0.5,3.5-0.9,6.4-2.9,9.1c-1.7-0.8-0.7,0.7-0.9,1.1v-0.1c-0.3,0.4-0.7,0.8-1,1.1l0.1-0.1
			c-0.4,0.4-0.7,0.7-1.1,1.1v-0.1C197.5,131.6,197.2,132.1,196.8,132.5z"/>
		<path class="st0" d="M123.9,37c5.8,4.4,8,10.3,7.7,17.4c0,0.9,0.4,2.2-0.9,2.5c-0.6,0.1-1.5-0.5-2.1-1c-4.4-3.6-7.6-7.8-7.8-13.8
			C122.6,40.9,120.5,37.2,123.9,37z"/>
		<path class="st0" d="M288.8,97.1c0.5-7.4,5-11.9,11.4-16.3c0.4,7.1-0.5,12.8-5.1,17.4c-0.4,0.4-0.9,0.7-1.3,1.1l0.1-0.1
			c-0.4,0.4-0.7,0.7-1.1,1.1l0.1-0.1c-0.4,0.3-0.8,0.7-1.1,1h0.1C289,101.2,290.3,98.1,288.8,97.1z"/>
		<path class="st0" d="M267.1,133.9c3.4-0.2,6.5,1,9.5,2.6c0.8,0.4,2.1,0.8,1.9,2c-0.2,1.1-0.7,2.2-2,2.6c-6,2-11.8,1.6-17.3-1.5
			c-2.9-1.7-1.1-3.4,0.6-4.4C262,133.8,264.7,134,267.1,133.9z"/>
		<path class="st0" d="M56.7,75.1c0-3-2.8-3.9-4.4-5.6c-2.9-3.2-5.1-9.2-3.1-10c4.1-1.6,6.3,1.9,8.6,4.2c1.6,1.6,2.7,3.8,3.6,5.8
			c0.8,1.7,2.1,3.6,0.6,5.6C60.3,77.6,58.5,74.7,56.7,75.1L56.7,75.1z"/>
		<path class="st0" d="M66.9,102c0.6,0.6,1.2,1.2,1.8,1.8c0.4,0.4,0.7,0.8,1.1,1.1v-0.1c-0.1,1.9,0.6,3.4,2.3,4.4
			c1.2,1.6,2.7,3.5,0.7,5.2c-1.9,1.6-3.7,0.1-5.4-1c-5.7-3.8-8.1-9.3-8.9-16.3c3.1,0.6,5.3,1.7,7.3,3.5
			C66.2,101.2,66.6,101.6,66.9,102z"/>
		<path class="st0" d="M80.7,158.1c1.4-7.2,6.3-11.2,13.3-14.3c-0.8,7.9-2.7,14.2-9.3,18.2C82.7,161.3,81.7,159.7,80.7,158.1z"/>
		<path class="st0" d="M159.8,19.1c0.7-6.5,4.6-10.6,10.4-14.6c0.7,5.7,0.6,10.3-2.3,14.5c-0.3,0.4-0.7,0.8-1,1.3l0.1-0.1
			c-1.1,0.2-1.2,1.1-1.2,2v-0.1c-0.3,0.4-0.7,0.8-1,1.2c-0.3,0.3-0.5,0.5-0.8,0.8c-0.4,0.3-0.8,0.7-1.3,1h0.1
			C159,24.6,162,20.5,159.8,19.1z"/>
		<path class="st0" d="M26.6,114.9c5.1,2.3,11,3.8,14.8,9c1.4,1.8,0.9,2.2-1.1,2.8c-5.3,1.6-16.1-4-17.4-9.5
			C22.1,113.9,25,115.8,26.6,114.9z"/>
		<path class="st0" d="M131.6,13.1c2,2.3,2.8,5.2,3.4,8.1c0.3,1.5,0.1,2.4-1.2,3.4c-1.5,1.1-2.5,0.4-3.5-0.5c-5-4.1-7.9-9.3-7.6-16
			c1.4,0,2.8,0,4.1-0.1c0.3,0.2,0.6,0.5,0.9,0.7c0.4,0.4,0.7,0.8,1.1,1.2l-0.1-0.1c0.4,0.4,0.7,0.7,1.1,1.1l-0.1-0.1
			c0.4,0.4,0.7,0.7,1.1,1.1l-0.1-0.1C131,12.3,131.3,12.7,131.6,13.1z"/>
		<path class="st0" d="M56.7,75.1c-1.1,1.5,0.9,1.8,1.1,2.8c0.2,1.8-2.1,2.4-2.1,4.1c-8.6,0.5-9.6,0.1-18-8.2
			C44.4,72.5,50.6,73.5,56.7,75.1L56.7,75.1z"/>
		<path class="st0" d="M130.5,143.2c-5.4-1.1-10.4-3-13.9-7.7c-1.5-2-0.6-3.8,1.3-3.4c5.3,1,10.8,1.6,14.9,5.6c1.1,1,3.2,2.1,2.1,4
			C134.2,143.3,132.4,143.7,130.5,143.2z"/>
		<path class="st0" d="M111.7,92.2c-0.3,0.2-0.5,0.5-0.8,0.6c-2.2,0.7-5,3.1-6.7,0.3c-1.6-2.7,1.2-4.5,3.1-6.4
			c2.6-2.6,5.1-5.4,8.8-6c2.4-0.4,6.2-1,3.7,3.8c-2.3-0.7-0.6,1.3-1.2,1.8c-0.8,1.8-2.1,3.1-3.8,4C113.4,90.1,111.8,90,111.7,92.2z"
			/>
		<path class="st0" d="M66.4,146.2c-0.3,0-0.5,0-0.7-0.2c-0.3-0.3-0.6-0.6-0.9-0.9c-0.6-1-1.9-1.9,0.2-3.1
			c4.7-2.8,14.4-2.5,19.2,0.8c1.5,1,2,2.3,0.3,2.8c-2,0.6-3.4,2.8-5.7,2.4C74.7,146.9,70.6,146,66.4,146.2z"/>
		<path class="st0" d="M236.8,204.3c-0.3,6.7-3.7,11.3-9.9,14.8c-0.9-7.8,0.5-14.2,6.4-19.1c0.4-0.3,0.9-0.7,1.3-1h-0.1
			C237.9,199.7,236.3,202.4,236.8,204.3z"/>
		<path class="st0" d="M94.1,61c0.2,0.2,0.5,0.5,0.7,0.7c0.4,0.5,0.7,1,1.1,1.5c3.5,3.6,4.1,8,4,12.8c0,1.3-0.4,2.3-1.6,2.8
			c-1.1,0.4-1.8-0.5-2.5-1.1c-3.2-3.2-5.8-6.7-6-11.5c2.3-1.4-0.6-5.5,3.2-6.2h-0.1C93.2,60.3,93.7,60.6,94.1,61z"/>
		<path class="st0" d="M34.5,109c-4.7-4.9-5.2-10.8-4.3-17.7c4.1,2.1,6.8,5,8.4,8.8c-1,0.8-0.9,1.4,0.3,1.9l-0.1-0.1
			c-1.2,3,2.2,7.2-2.4,9.2c-0.3-0.3-0.5-0.5-0.8-0.8C35.3,109.9,34.9,109.5,34.5,109z"/>
		<path class="st0" d="M286.7,189.1c4.1,2.8,6.1,6.8,7,11.5c0.2,1.2,0.5,3-1.9,2.1c-5.3-2.1-10.2-4.6-11.2-11
			c0.3-1.8-0.7-4.1,2.2-4.6h-0.1c0.4,1,1.2,1.1,2.1,1l-0.1-0.1C285.1,188.9,285.9,189.1,286.7,189.1z"/>
		<path class="st0" d="M179.8,18.4c-0.9,1-1.7,1.9-2.6,2.9c-4.2-0.3-1.3-4.7-3.5-6.1c-0.2-4.5,3.2-7.3,5.4-10.7c0.6-1,1.8-1.7,3-1.2
			c1.4,0.5,1.8,1.8,1.8,3.2c-0.1,3.9-0.5,7.6-3.2,10.7C179,16.5,180.1,17.9,179.8,18.4z"/>
		<path class="st0" d="M94.3,185c6.7,2.5,9,8.3,10.3,14.6c0.5,2.3-0.5,3.3-2.7,2.1c-1.5-0.7-2.8-1.7-4.2-2.6
			c-0.4-0.3-0.8-0.6-1.2-0.9v0.1c0.2-1.7,0.1-3.1-2.2-3c-0.3-0.3-0.5-0.6-0.8-0.9c0.5-2.4-0.7-4.5-1-6.7C92.4,186,92.4,185,94.3,185
			z"/>
		<path class="st0" d="M142.5,63.2c-0.6-0.6-1.2-1.2-1.9-1.8c-0.3-0.4-0.7-0.8-1-1.3v0.1c0.1-1.6,0.1-3.1-2.1-3.1
			c-0.3-0.7-0.6-1.3-0.9-2c1.5-1.3,0.7-1.7-0.7-2c-0.8-3-2.7-7.2,0-8.5c2.4-1.1,4.9,3,6.9,5.4c1.5,1.7,2.7,3.7,2.9,6.2
			C143.5,58,146.1,62,142.5,63.2z"/>
		<path class="st0" d="M169.7,119c-1,0-2,0-3,0c-0.7-2.4-1.8-2.3-3.2-0.5c-1.8-0.7-3.7-1.4-5.5-2.3c-1.1-0.6-2.6-1.1-2.2-2.9
			c0.3-1.4,1.8-1.6,2.8-1.7c6.6-0.4,13.5-2,19.1,3.5C175.6,117.4,171.4,115.6,169.7,119z"/>
		<path class="st0" d="M167.7,70.2c1.3-0.1,3-0.8,3.7,0.4c0.9,1.4-0.1,3.2-1.2,3.9c-3.6,2.5-5.4,7.8-10.8,7.6
			c-1.5-0.1-3.6,1.1-4.4-0.8c-0.8-1.7,0.5-3.1,1.7-4.3c1.6,0.7,0.7-0.7,0.9-1.1V76c0.3-0.4,0.7-0.8,1-1.2c0.9-1.3,1.9-2.4,3.5-2.8
			c1,0,2,0.1,2.5-1.1l-0.1,0.1C165.7,71.1,166.8,71.3,167.7,70.2z"/>
		<path class="st0" d="M214.6,21.5c0.2-3.2,2.3-5.3,4.8-7.5c1.9,5.4,3.5,10.4,0.7,15.6c-2.7,0.6-2.2,2.7-2.3,4.6l0.1-0.1
			c-0.9,0.3-1.1,1.1-1.2,1.9l0,0c-1.4-0.1-1.6-1.2-2.1-2.3C213,29.6,214.8,25.6,214.6,21.5z"/>
		<path class="st0" d="M81.4,203.2c-0.3-0.7-0.6-1.3-0.9-2c1.3-3.4-0.3-6.8,0.1-10.3c0.3-3.3,1.2-4.9,4.6-2.9
			c3.2,5.6,2.8,11.4,0.5,17.2c-0.3,0.8-0.5,2.2-1.8,1.8c-0.5-0.2-0.8-1.3-1.2-2C82.6,204.1,82.4,203.4,81.4,203.2z"/>
		<path class="st0" d="M106.7,157.3c-0.7-0.3-1.4-0.6-2-0.9c-0.3-1.1-1.1-1.3-2.1-1.3c-0.3-0.3-0.6-0.5-0.9-0.8
			c-0.3-1.3-0.7-2.7-1-3.9c3.1-1.2,6.2,0.8,9.1-0.5c0.7,0.3,1.3,0.6,2,0.9c0.2,0.9,0.9,1.2,1.7,1.2c0.1,0.1,0.2,0.3,0.3,0.4
			c1.7,2,6.6,2.8,5.2,5.4c-1.2,2.4-5.7,1.1-8.8,0.6c-0.8-0.1-1.5-0.6-2.3-1C107.6,156.9,107.4,156.2,106.7,157.3z"/>
		<path class="st0" d="M243.4,125.9c0.2-1,0.3-1.9,0.5-2.9c0.3-0.4,0.5-0.8,0.8-1.1h-0.1c3-0.2,2-2.4,2.1-4.1
			c0.3-0.3,0.5-0.6,0.8-0.9c0.4-0.4,0.8-0.7,1.2-1.1l-0.1,0.1c0.4-0.4,0.7-0.7,1.1-1.1l-0.1,0.1c0.4-0.4,0.7-0.7,1.1-1.1l-0.1,0.1
			c0.4-0.3,0.8-0.7,1.1-1h-0.1c0.9,0,1.7-0.1,2-1.2l-0.1,0.1c1.4,0.4,2.8,0.8,4.1,1.2c-0.8,5.5-3.3,9.9-8,12.8
			c-0.6-0.5-0.8-0.2-0.8,0.4v-0.1c-0.9-0.1-1.7,0-2.1,1h0.1C245.7,126.8,244.5,126.4,243.4,125.9z"/>
		<path class="st0" d="M280.8,56.3c-3.1,6.2-8.7,7.9-14.9,8.7c-1,0.1-2.5,0.7-3.1-0.6c-0.6-1.4,0.7-2.3,1.7-3.2
			c0.4-0.4,0.8-0.9,1.2-1.3h-0.2c2.2,0.2,3.3-0.8,3-3.1V57c0.4-0.3,0.8-0.7,1.1-1h-0.1c2.4,0.3,4.4-1.1,6.6-1.6
			C278.1,54,280.2,53.3,280.8,56.3z"/>
		<path class="st0" d="M179.6,121.5c1.1-4.8,5.2-6.8,9-9.6c1.7,3,0.5,5.6-0.1,8.2c-2.5,0.9-2.4,3.1-2.5,5.2l0,0
			c-1.2,0.2-1.3,1-1.2,2v-0.1c-0.4,0.4-0.7,0.7-1.1,1.1l0.1-0.1c-0.4,0.4-0.7,0.7-1.1,1.1h0.1c-1.5-0.1-2.2,0.6-2,2.1l0,0
			c-2.8-0.6-2.2-2.8-2-4.6C179,124.9,179.9,123.3,179.6,121.5z"/>
		<path class="st0" d="M52.6,178.5c1.2-2.4,2.6-2.6,4-0.6c2.6,3.9,1.5,16.2-1.9,19.3c-1.7,1.6-2.6,0.7-2.9-1.2
			C52,190.2,51.1,184.3,52.6,178.5z"/>
		<path class="st0" d="M86.8,82.1c0.3-1.9,0.2-4.4,2.5-4.7c2.4-0.3,2.7,2.5,3.4,4.1c1.9,4.5,2.1,9,0,13.5c-1.1,0.9-2.3,1.7-3.4,2.6
			v-0.3C88.5,92.3,87.6,87.2,86.8,82.1z"/>
		<path class="st0" d="M126.7,34.1c-1.8-0.9-2.9-2.4-4-3.9c-0.3-0.4-0.6-0.7-0.9-1.1c-0.1-0.2-0.2-0.5-0.1-0.8
			c0.1-1.6,1-1.6,2.3-1.4c2.6,0.5,5.3,0.7,8,1.1c2.7,1,4.6,2.9,5.9,5.5c0.9,4.9-4.1,1.5-5.2,3.7c-1.6-0.1-2.9-0.8-4-1.8
			C128.4,34.4,127.6,34.2,126.7,34.1z"/>
		<path class="st0" d="M128.7,68.1c-1-0.9-2.1-1.6-3-2.6c-1.1-1.2-2.8-2.4-1.7-4.3c1.2-2.1,3.1-1.4,4.8-0.8c0.6,2.4,2.5,1.5,4,1.6
			l-0.1-0.1c0.4,1,1.3,1.1,2.2,1.1c1.3,0,2.2,0.6,2.9,1.7c0.4,0.4,0.7,0.9,1.1,1.3l-0.1-0.1c0.4,0.4,0.8,0.7,1.2,1.1
			c0.3,0.3,0.5,0.6,0.8,0.9c-0.1,2-0.3,3.8-3.1,2.6c-1.2-0.5-2.2-0.6-3,0.6c-0.7-0.2-1.4-0.5-2-0.7c-0.3-1.1-1.1-1.3-2.1-1.2
			l0.1,0.1C130.3,68.3,129.5,68.1,128.7,68.1z"/>
		<path class="st0" d="M264.7,108.1c0.6-0.7,1.3-1.3,1.9-2c1.1,0,1.9-0.3,2.1-1.5c2.8-2,4.3-1.4,4.1,2.2s-2.6,6.3-4.1,9.3
			c-0.3,0.4-0.6,0.9-0.8,1.3c-0.7,1.2-1.6,2.2-2.9,2.7c-2.7,0.1-3.5-1.1-2.8-3.7C262.8,113.6,264.9,111.2,264.7,108.1z"/>
		<path class="st0" d="M253.9,167.1c-1-4.2-0.7-8.3,0.4-13c3.1,2.2,4.8,5,6.3,8c-1.6,3.2,0.5,6.3,0.2,9.5c-0.2,2.8-1.3,2.9-3.3,2.5
			h0.1C257.7,171.2,256.2,168.9,253.9,167.1z"/>
		<path class="st0" d="M171.6,44.5c3.6-2,7.5-1.6,11.4-1.5c1.6,0.1,2.1,0.8,0.7,2c-1.3,0.1-1.9,0.8-1.9,2.1c-0.7,0.6-1.4,1.3-2,1.9
			c-0.9,0-1.6,0.2-1.9,1.2l0.1-0.1c-4.2-0.4-7.9,3.4-12.4,1.3c0.2-1.4,1.5-2.4,1.1-3.8c0.3-0.2,0.6-0.5,0.9-0.7
			C169.5,47.2,171.2,47,171.6,44.5z"/>
		<path class="st0" d="M34.5,154.2c-1.1-1.1-1.7-2.5-1.9-4c1.6-1,3.5-1.1,5.3-1.1c0.3,0,0.6,0,0.8,0.2c0.4,0.3,0.8,0.6,1.2,0.8
			c1.9,0.2,2.9,1.5,3.8,2.9c0,0.9,0.1,1.8,1.2,2l-0.1-0.1c0.3,0.4,0.7,0.8,1,1.2l-0.1-0.1c-0.1,1.4-0.3,2.8,1.7,3.1
			c0.3,1.1,0.6,2.3-0.6,3.1c-2.7-1.1-5-3.3-8.2-3.1c-0.7-0.6-1.3-1.3-2-1.9c0-0.9-0.1-1.8-1.2-2l0.1,0.1
			C35.2,154.9,34.8,154.5,34.5,154.2z"/>
		<path class="st0" d="M61.6,191.8c0-0.3,0.1-0.6,0.3-0.7c1.3-0.1,1.8-0.9,1.7-2.1v0.1c0.4-0.4,0.7-0.7,1.1-1.1l-0.1,0.1
			c0.4-0.4,0.7-0.8,1.1-1.2c0.3-0.3,0.6-0.5,1-0.8c1-0.1,2.1,0,2.9-0.4c3.5-2.1,4.6-0.7,4.4,2.8c-0.3,0.6-0.6,1.1-0.9,1.7
			c-2.1-0.1-2.2,1.4-2.2,2.9l0,0c-1.1,0-1.9,0.5-2,1.7c-1.4,1-2.7,2.4-4.3,2.8c-1.6,0.5-4.2,2.1-4.7-1.5
			C62.5,195.6,61.5,193.5,61.6,191.8z"/>
		<path class="st0" d="M191.9,24c1.2,0.7,2.2,1.7,2.8,3c0,0.9,0.2,1.7,1.2,2l-0.1-0.1c0.4,2.6-0.1,5.5,2.7,7.1
			c0.5,2.6,0.4,5.1-0.1,8.2c-2.2-2.1-4-3.7-5.7-5.3c0.2-2.5-1.6-4.3-2.2-6.5C189.7,29.6,187.9,26.2,191.9,24z"/>
		<path class="st0" d="M175.7,27.1c0.7-1.3,1.7-2.3,3-3c0.9-0.1,1.6-0.2,1.9-1.2h-0.1c2.1,0.4,2.5,1.9,1.8,3.6
			c-0.6,1.6-0.8,3.1-0.6,4.7l0.1-0.1c-1,0.4-1.1,1.2-1.1,2.1c-0.2,1.9-1.5,2.9-2.9,3.9c-1.2-0.1-2,0.4-2.1,1.7c-1.7,0.4-4.5,3-4-1.7
			C173.9,34.1,175.2,30.8,175.7,27.1z"/>
		<path class="st0" d="M241.6,55.1c0.1,0.2,0.2,0.5,0.1,0.7c-0.1,3,1,5.8,1,8.8c0,2.9-1.4,2.8-3.3,2.6h0.1c-0.3-0.4-0.7-0.7-1-1.1
			v0.1c0.2-2-0.1-3.7-2.5-4c-2.1-3.9-1.7-8-1.2-12.1c1,0,2,0,3-0.1c0.6,0.7,1.2,1.3,1.8,2C239.7,53.5,239.6,55,241.6,55.1z"/>
		<path class="st0" d="M259.7,38.2c0.2-0.1,0.5-0.2,0.7-0.2c2.2,0.1,4.6-0.1,4.4,3.2l0.1-0.1c-1,0.4-1.1,1.2-1.1,2.1l0.1-0.1
			c-1,0.4-1.1,1.2-1,2.1v-0.1c-0.4,0.4-0.7,0.8-1.1,1.2c-0.6,0.6-1.2,1.2-1.8,1.8c-0.4,0.4-0.8,0.7-1.2,1.1h0.1
			c-0.9-0.1-1.8,0-2,1.2l0,0c-1.5-1.5-4.9,2.7-5.3-1.8c0.2-4.8,5.2-6,7.2-9.4C259.1,38.8,259.4,38.5,259.7,38.2z"/>
		<path class="st0" d="M133.1,96c0.2,0.3,0.4,0.6,0.7,0.9c-0.1,1.8-0.2,3.6,2.2,4h-0.1c-0.4,5.6-4.4,1.3-6.4,2.3h0.1
			c-0.4-0.3-0.8-0.7-1.1-1l0.1,0.1c-0.1-0.6-0.4-1-1.1-1c0,0,0.1,0.1,0.1,0c-0.1-0.7-0.4-1-1.1-1l-0.1,0.1c0.4-1.6-0.3-2.2-1.8-2.2
			h0.1c0-2.2,0-4.3-2.6-5.1c-0.6-1.7-0.9-3.2,1.8-2.9c0.4,0.2,0.8,0.5,1.2,0.7l0.1-0.2c0.1,0.3,0.1,0.5,0.2,0.8
			c0.2-0.2,0.4-0.4,0.6-0.6c2,0.5,3.7,1.4,5,2.9c0.4,0.4,0.7,0.8,1.1,1.2l-0.1-0.1C132.2,95.3,132.7,95.6,133.1,96z"/>
		<path class="st0" d="M267.7,207.1c0.1,0.2,0.2,0.4,0.1,0.7c-0.3,2.4-1.7,2.5-3.5,1.6c-1.5-0.8-3-1.5-4.7-1.2v0.1
			c0-2.1-0.9-3.2-3.1-3h0.1c-0.4-0.4-0.8-0.9-1.2-1.3c-1.4-0.9-2.2-2.4-2.5-3.9c-0.6-2.5,0.3-3.8,3-2.5c1,1.5,2.4,1.7,4,1.3l0,0
			c0.2,1.2,1.1,1.3,2,1.1h-0.1c0.4,0.3,0.8,0.7,1.1,1l-0.1-0.1c0.1,0.6,0.4,1,1.1,1h-0.1c0.1,0.6,0.4,1,1.1,1.1h-0.1
			c0.3,0.4,0.7,0.7,1,1.1V204c-0.1,0.9,0,1.8,1.2,2h-0.1C267.2,206.3,267.4,206.7,267.7,207.1z"/>
		<path class="st0" d="M143.6,187.1c0.5,1.7,1.4,3.6-0.9,4.5c-3.3,1.3-4.3-1.7-6-3.4c0-0.9-0.1-1.7-1.2-1.9v0.1c0.2-1,0.1-1.8-1.1-2
			h0.1c0.5-1.5-0.2-2.8-0.6-4.2c-0.6-2.5,0.2-4.1,3-4.2h-0.1c0.3,0.4,0.7,0.8,1,1.1l-0.1-0.1c0.4,0.4,0.7,0.7,1.1,1.1l-0.1-0.1
			c0.4,0.3,0.8,0.7,1.1,1l-0.1-0.1c0.3,0.4,0.7,0.8,1,1.1v-0.1C141.3,182.5,140.6,185.5,143.6,187.1z"/>
		<path class="st0" d="M266.7,89c-0.3,0.1-0.5,0.2-0.8,0.1c-1.6,0.1-3.7-0.8-4.2,1.8c-3.1,0.4-6.5,2.1-8.7-1.9
			c0.8-0.1,1.5-0.3,1.4-1.3v0.1c0.7,0,1-0.4,1-1.1v0.1c0.7,0,1-0.4,1.1-1v0.1c0.4-0.3,0.8-0.7,1.1-1c0,0-0.1,0-0.1,0.1
			c1.9,0.4,3.5-1,5.2-1.3c3.1-0.4,6.8-2.6,9.2,1.6v-0.1c-0.4,0.4-0.7,0.9-1.1,1.3c-0.3,0.2-0.6,0.5-0.9,0.7
			C268.5,87.1,266.9,86.9,266.7,89z"/>
		<path class="st0" d="M19.5,155.3c0.1-2.7,3.2-1.6,4.2-3.1c0.4,0.1,0.7,0.2,1.1,0.3c1,2.3,3.1,2.2,5.1,2.5l-0.1-0.1
			c0.4,0.3,0.8,0.7,1.1,1l-0.1-0.1c0.2,1.1,1,1.2,1.8,1.3c0.3,0.3,0.7,0.7,1,1c-0.4,1.7,1,3,1.2,4.6c-2.9,1.1-5.5-1.3-8.3-0.6l0,0
			c0-2.2-1.6-2.1-3.1-2.1c-1.3-0.7-2.2-1.7-2.9-3c0-0.9-0.2-1.6-1.2-1.9L19.5,155.3z"/>
		<path class="st0" d="M220.7,69.1c-0.3,0.3-0.7,0.6-1,1c-0.8,0.1-1.6,0.3-1.9,1.2l0.1-0.1c-1.9-0.4-3.4,1-5.1,1.2
			c-3.2,0.4-6.9,2.9-9.2-1.7c0.7-0.6,1.3-1.1,2-1.7c3.3,0.3,5.6-2,8.4-3c3-2,5.8-2,8.2,0.9C221.1,67.3,220.7,68.1,220.7,69.1z"/>
		<path class="st0" d="M241.7,167c-3.5,1.9-7.2,1.8-11,0.9c-1.4-3-4.1-3.6-7.1-3.7l0,0c0.7-1.3,1.4-2.6,2.1-3.9
			c0.7-0.1,1.3-0.1,2-0.2c4.7,1.3,9.4,2.6,14.1,3.9v-0.1C241.8,165,241.7,166,241.7,167z"/>
		<path class="st0" d="M183.2,162.2c-0.6,2.9-2.8,1.8-4.6,1.7c-1.2-2.8-3.6-3.4-6.2-3.5h0.1c-0.2-1-1-1.2-1.8-1.3l0,0
			c-0.1-0.9-0.2-1.6-1.3-1.8l0.1,0.1c-0.3-0.4-0.7-0.8-1-1.1v0.1c-0.3-2.9-0.3-5.4,3.8-3.4c0.7,0.3,1.6,0.1,2.4,0.2l-0.1-0.1
			c0.4,1,1.3,1.1,2.2,1c0.3,0.2,0.5,0.4,0.8,0.5c0.4,0.5,0.7,1,1.1,1.4v-0.1c0.4,0.4,0.7,0.7,1.1,1.1c0,0-0.1-0.1-0.1,0
			c0.3,0.4,0.7,0.7,1,1.1l-0.1-0.1c0.3,0.4,0.7,0.8,1,1.1c0.4,0.7,0.8,1.3,1.1,2C181.9,161.7,182.5,162,183.2,162.2z"/>
		<path class="st0" d="M71,154c0.3,0.3,0.5,0.6,0.8,1c0,3.5,2.4,6.5,2.7,9.9c0.2,1.9,1.5,4.4-1.8,5.3c-1.3-0.7-2.3-1.7-3-3
			c-0.1-2.8-1-5.2-3.3-6.9h0.1c1.2-2.7-1.9-6.5,2.3-8.3h-0.1c0.4,0.4,0.7,0.7,1.1,1.1l-0.1-0.1C70.2,153.3,70.6,153.7,71,154z"/>
		<path class="st0" d="M313.3,172.4c0.1,0.3,0,0.5-0.2,0.6c-0.4,0.4-0.9,0.9-1.3,1.3l0.1-0.1c-3,1.1-6.8-0.6-9.1,2.8
			c-0.7,0-1.3,0-2,0c-1.4-3.4-6-1.2-7.7-4.2l0.4-0.1c2.6,0.5,4.4-1.1,6.2-2.5c4.1-0.5,8.2-2.8,12.2,0.2
			C311.9,171.3,312.5,172,313.3,172.4z"/>
		<path class="st0" d="M109.7,123.4c0.4-0.8,0.8-1.5,1.3-2.3c1.2-0.1,1.7-0.8,1.7-2l0,0c0.9,0,1.7-0.2,1.8-1.3v0.1
			c0.4-0.3,0.8-0.7,1.1-1l-0.1,0.1c1.5,0.3,2.9-0.1,4.2-0.8c3.9-2.3,4.6-0.3,4.1,3.1h0.1c-1.5,0-2.2,0.6-1.9,2.2v-0.1
			c-0.6,0.1-1,0.4-1,1.1v-0.1c-0.4,0.5-0.7,1-1.1,1.4c-0.3,0.2-0.5,0.4-0.8,0.6c-2.3-0.4-4.2,0.7-6.2,1.4
			C110.5,126.4,109.7,125.5,109.7,123.4z"/>
		<path class="st0" d="M202.1,20.1c-0.4-1.4-0.4-2.7,0-4.1c2.1-0.6,1.9-2.6,2.3-4c0.6-2.1,1.5-2.8,3.5-2c0.3,0.7,0.6,1.3,0.9,2
			c-1.4,0.8-0.5,1.9-0.4,3c0.5,4.3,0.5,8.5-2.1,12.3C203.5,25.4,204.9,21.6,202.1,20.1z"/>
		<path class="st0" d="M99.5,62.2c-1.2-0.7-2.2-1.7-2.8-3.1c0-0.9-0.2-1.6-1.2-2l0.1,0.1c-0.2-1.4,0.9-3.2-1.3-3.9l0.1-0.1
			c1.1-2.6-1.3-6.3,2.4-8.2c0.6,0.7,1.3,1.3,1.9,2c0,1.5-0.1,3,2.1,3l0,0c-0.3,2,0.8,3.8,0.7,5.7C101.5,57.9,103.3,61.1,99.5,62.2z"
			/>
		<path class="st0" d="M239.4,157.2c-1.1-0.7-2-1.6-1.8-3.1c1.6-1.1,0.2-2.3,0.1-3.5c-0.3-2.4,0.5-3.7,3.1-3.6h-0.1
			c0.4,0.3,0.8,0.6,1.2,1v-0.1c0.1,0.6,0.4,1,1.1,1h-0.1c0.1,0.6,0.4,1,1.1,1.1h-0.1c0.3,0.4,0.7,0.8,1,1.1c0,0,0-0.1-0.1-0.1
			c-0.4,1.7,0.5,3.2,1.1,4.7c1.6,4.2,1.1,5-3.5,4.7h0.1c-0.4-0.4-0.7-0.7-1.1-1.1l0.1,0.1c-0.4-0.4-0.7-0.7-1.1-1.1h0.1
			C240.2,157.9,239.8,157.5,239.4,157.2z"/>
		<path class="st1" d="M202.1,20.1c2.8,1.5,1.4,5.3,4.2,7.1c2.7-3.7,2.6-8,2.1-12.3c-0.1-1.1-1-2.2,0.4-3c3.2,6.7,1.2,12.7-2.6,18.7
			C203.7,27.4,202.5,24,202.1,20.1z"/>
		<path class="st1" d="M257.6,174.2c2,0.4,3.1,0.2,3.3-2.5c0.3-3.2-1.9-6.3-0.2-9.5c2.6,5.1,2.6,10.3,0.6,15.7
			C259.1,177.4,258.3,175.8,257.6,174.2z"/>
		<path class="st1" d="M191.9,24c-4,2.2-2.2,5.5-1.4,8.5c0.6,2.2,2.4,4,2.2,6.5c-4.4-3.6-4.6-8.6-4.7-13.6c0-1.3-0.3-3.1,1-3.5
			C190.2,21.5,191.2,23,191.9,24z"/>
		<path class="st1" d="M85.2,188c-3.4-2-4.3-0.5-4.6,2.9c-0.4,3.5,1.2,6.9-0.1,10.3c-2.2-4-1.8-8.1-1-12.4c0.4-1.9,0.9-3.9,2.7-4.2
			C83.8,184.4,84.7,186.4,85.2,188z"/>
		<path class="st1" d="M166.6,47.8c0.4,1.4-0.9,2.4-1.1,3.8c4.4,2.1,8.2-1.7,12.4-1.3c-3.2,3.2-7.4,3.2-11.4,3.5
			c-1.2,0.1-3.2-0.2-3.6-0.9c-0.8-1.5,1-2.5,1.9-3.5C165.2,48.6,165.9,48.2,166.6,47.8z"/>
		<path class="st1" d="M271.9,85.3c-2.4-4.2-6-1.9-9.2-1.6c-1.7,0.2-3.2,1.7-5.2,1.3c3.8-3.5,8.5-3.9,13.3-3.7
			c1.2,0.1,3-0.2,3.4,1.2C274.5,83.8,273,84.6,271.9,85.3z"/>
		<path class="st1" d="M242.4,160.4c4.5,0.3,5.1-0.5,3.5-4.7c-0.6-1.5-1.5-3-1.1-4.7c3.4,3.7,4,8.2,3.8,13.1
			C245.7,163.9,244,162.3,242.4,160.4z"/>
		<path class="st1" d="M239.5,67.3c1.9,0.2,3.3,0.4,3.3-2.6s-1.1-5.8-1-8.8c3.8,4.6,3,9.7,2,15.1C241.5,70.2,240.3,69,239.5,67.3z"
			/>
		<path class="st1" d="M264.7,108.1c0.2,3.1-1.9,5.5-2.7,8.4c-0.7,2.6,0.2,3.8,2.8,3.7c-1.2,1.3-2.8,3.2-4.4,2.4
			c-1.6-0.9-0.6-3.2-0.2-4.9C261,114.1,261.9,110.6,264.7,108.1z"/>
		<path class="st1" d="M203.6,70.7c2.3,4.7,6,2.1,9.2,1.7c1.7-0.2,3.2-1.6,5.1-1.2c-3.7,3.3-8.1,3.8-12.8,3.7
			c-1.4,0-3.3,0.3-3.8-1.3C201,72.4,202.6,71.5,203.6,70.7z"/>
		<path class="st1" d="M109.8,149.9c-2.9,1.4-6-0.7-9.1,0.5c0.3,1.3,0.6,2.6,1,3.9c-2.3-0.8-3.6-2.6-4.7-5
			C101.4,147.6,105.6,148.2,109.8,149.9z"/>
		<path class="st1" d="M52.6,178.5c-1.4,5.8-0.6,11.7-0.8,17.6C49.1,190.1,48.2,184.2,52.6,178.5z"/>
		<path class="st1" d="M99.5,62.2c3.9-1.1,2-4.3,2-6.5c0-1.9-1.1-3.7-0.7-5.7c3.2,4.4,3,9.4,2.7,14.5C101.2,65,100.6,63.2,99.5,62.2
			z"/>
		<path class="st1" d="M280.8,56.3c-0.6-3-2.7-2.3-4.6-1.9c-2.2,0.5-4.2,1.9-6.6,1.6c3.9-3.4,8.6-3.8,13.5-3.9
			C283.5,54.4,282.2,55.4,280.8,56.3z"/>
		<path class="st1" d="M72.7,170.1c3.3-0.8,1.9-3.3,1.8-5.3c-0.3-3.4-2.7-6.3-2.7-9.9c4,4.2,4.4,9.4,4,14.7
			C75.5,173.8,73.9,171.4,72.7,170.1z"/>
		<path class="st1" d="M26.6,162.2c2.8-0.7,5.4,1.7,8.3,0.6c-0.2-1.6-1.6-2.9-1.2-4.6c1.9,1.7,3,3.8,4.4,6.7
			C33.5,165.4,29.9,164.4,26.6,162.2z"/>
		<path class="st1" d="M136.9,175.9c-2.8,0.1-3.7,1.6-3,4.2c0.4,1.4,1.1,2.7,0.6,4.2c-2.9-3.4-2.9-7.4-2.6-11.6
			C134.3,173,135.7,174.2,136.9,175.9z"/>
		<path class="st1" d="M123.8,119.2c0.5-3.5-0.2-5.4-4.1-3.1c-1.3,0.8-2.6,1.2-4.2,0.8c1.3-1.7,3.2-2.2,5.1-2.7s4.6-2.2,5.8-0.3
			C127.4,115.5,125.4,117.7,123.8,119.2z"/>
		<path class="st1" d="M214.6,21.5c0.2,4.1-1.6,8.1,0,12.2c0.5,1.2,0.6,2.2,2.1,2.3c-0.8,0.8-1.7,3.8-2.8,0.7
			C212.2,31.7,211.2,26.5,214.6,21.5z"/>
		<path class="st1" d="M36.4,111.2c4.6-2.1,1.2-6.3,2.4-9.2c3,3.6,1.6,7.7,1.6,11.7C38.2,114,37.5,112.3,36.4,111.2z"/>
		<path class="st1" d="M96.8,45.1c-3.7,1.9-1.3,5.6-2.4,8.2c-2.8-2.7-1.5-6.1-1.5-9.3C92.9,42,93.6,42.1,96.8,45.1z"/>
		<path class="st1" d="M109.7,123.4c0,2.2,0.8,3.1,3.1,2.2c2-0.7,4-1.8,6.2-1.4c-1.8,1.8-4.2,2.6-6.6,3.2c-1.5,0.4-3.6,1.5-4.5,0
			C107,126.1,108.2,124.4,109.7,123.4z"/>
		<path class="st1" d="M129.5,103.2c2-1,6,3.3,6.4-2.3c1.9,1.4,1.7,3.7,2.7,6C134.8,106.6,132,105.5,129.5,103.2z"/>
		<path class="st1" d="M86.8,82.1c0.8,5.1,1.7,10.2,2.5,15.2C85.4,92.8,85.2,87.6,86.8,82.1z"/>
		<path class="st1" d="M174.8,153c-0.8,0-1.7,0.1-2.4-0.2c-4.2-2-4.1,0.5-3.8,3.4c-1.7-1.6-2.5-3.6-3.2-6.2
			C169.2,150.2,172.4,150.4,174.8,153z"/>
		<path class="st1" d="M181.8,31.2c-0.2-1.6,0-3.1,0.6-4.7c0.7-1.7,0.3-3.2-1.8-3.6c1-1.1,2.2-2.5,3.7-1.5c1,0.7,0.5,2.5,0.2,3.7
			C183.8,27.2,183.7,29.6,181.8,31.2z"/>
		<path class="st1" d="M179.6,121.5c0.3,1.8-0.6,3.4-0.8,5.2c-0.2,1.8-0.8,4,2,4.6c-1,1.1-2,2.7-3.6,1.7c-1.1-0.7-0.6-2.5-0.4-3.7
			C177.5,126.6,177.2,123.6,179.6,121.5z"/>
		<path class="st1" d="M142.5,63.2c3.7-1.2,1-5.2,3.2-7.1c1,3,1.4,6.1,0.9,9.4C144.4,66,143.6,64.3,142.5,63.2z"/>
		<path class="st1" d="M208,10c-2-0.8-2.9,0-3.5,2c-0.4,1.4-0.2,3.5-2.3,4c0.2-3.6,1.6-6.8,3.4-9.8C207.4,7.2,207.6,8.6,208,10z"/>
		<path class="st1" d="M73.8,188.4c0.2-3.5-0.8-4.9-4.4-2.8c-0.8,0.5-1.9,0.3-2.9,0.4c0.9-0.7,1.8-1.6,2.8-2c2-0.8,4.5-3.2,6.2-1.4
			C76.8,184,75.1,186.7,73.8,188.4z"/>
		<path class="st1" d="M259.6,208.2c1.8-0.3,3.2,0.4,4.7,1.2c1.8,0.9,3.2,0.9,3.5-1.6c1.3,1,2.4,2.5,1.6,3.7
			c-0.9,1.5-2.6,0.4-3.9-0.1C263.3,210.7,261.1,210.1,259.6,208.2z"/>
		<path class="st1" d="M68.9,151.9c-4.2,1.8-1.2,5.7-2.3,8.3c-1.7-2.1-1.7-4.5-1.6-7c0-1.1,0.2-2.8,0.9-3.1
			C67.2,149.4,68.1,150.9,68.9,151.9z"/>
		<path class="st1" d="M131.9,28c-2.7-0.3-5.4-0.6-8-1.1c-1.3-0.2-2.2-0.2-2.3,1.4c-0.8-0.8-1.9-1.8-1.2-2.9
			c0.3-0.5,1.8-0.4,2.7-0.3C126.3,25.4,129.3,26,131.9,28z"/>
		<path class="st1" d="M241.8,164c-4.7-1.3-9.4-2.6-14.1-3.9C233,159.3,237.8,160.3,241.8,164z"/>
		<path class="st1" d="M240.8,147c-2.6-0.1-3.4,1.2-3.1,3.6c0.2,1.1,1.5,2.4-0.1,3.5c-1.6-2.7-2.3-5.5-1.7-8.6
			c0.4-0.4,0.8-0.8,1.2-1.2C238.7,144.7,240.1,145.5,240.8,147z"/>
		<path class="st1" d="M134.7,71.2c0.8-1.2,1.8-1.1,3-0.6c2.8,1.2,3-0.6,3.1-2.6c1.2,1.1,2.2,2.3,2.6,4.3
			C140.3,72.6,137.4,72.5,134.7,71.2z"/>
		<path class="st1" d="M94.3,185c-1.9,0-1.9,1-1.7,2.6c0.4,2.2,1.5,4.4,1,6.7c-2.1-2-2.3-4.9-2.9-7.5c-0.3-1.1-1.1-2.8,0.4-3.4
			C92.4,182.8,93.5,183.8,94.3,185z"/>
		<path class="st1" d="M80.7,158.1c1,1.6,2,3.2,4,3.8c-1.5,0.9-3.1,3.1-4.6,1.7C78.9,162.4,79.6,159.9,80.7,158.1z"/>
		<path class="st1" d="M132.7,37.2c1.1-2.1,6.1,1.3,5.2-3.7c1.5,1.2,2.1,2.8,2.6,5C137.6,38.2,135,38.5,132.7,37.2z"/>
		<path class="st1" d="M175.7,27.1c-0.5,3.7-1.8,7-4,10C171.4,33.1,173.1,29.9,175.7,27.1z"/>
		<path class="st1" d="M293,172.8c1.7,3,6.2,0.7,7.7,4.2c-2.9,0.3-5.6-0.8-8.1-2C290.8,174.1,291.5,173.3,293,172.8z"/>
		<path class="st1" d="M159.8,19.1c2.2,1.4-0.8,5.4,3,6.1c-0.8,0.9-1.5,2.4-3,1.7c-1.1-0.5-0.8-2-0.8-3.1
			C159.2,22.3,159.5,20.7,159.8,19.1z"/>
		<path class="st1" d="M173.8,15.1c2.2,1.4-0.8,5.8,3.5,6.1c-1,1-1.8,2.6-3.5,1.5c-1.3-0.8-1.2-2.3-1-3.5
			C172.9,17.9,173.4,16.5,173.8,15.1z"/>
		<path class="st1" d="M169.7,119c1.7-3.3,5.9-1.5,8-3.9c1.8,1.2,0.7,1.7-0.5,2.2C174.8,118.2,172.3,118.8,169.7,119z"/>
		<path class="st1" d="M37.9,149c-1.9,0-3.7,0.1-5.3,1.1c-0.7-1.1-1.6-3.1-0.6-3.4C34.1,146.2,36.4,147.1,37.9,149z"/>
		<path class="st1" d="M236.8,204.3c-0.5-1.9,1.1-4.6-2.2-5.3c1-0.8,2.2-3.1,3.3-1.3C238.9,199.6,239,202.4,236.8,204.3z"/>
		<path class="st1" d="M302.7,177c2.3-3.4,6.1-1.7,9.1-2.8C309.2,176.4,306.1,177.2,302.7,177z"/>
		<path class="st1" d="M38.6,159.1c3.2-0.2,5.5,2,8.2,3.1C43.1,163.9,41.1,160.8,38.6,159.1z"/>
		<path class="st1" d="M251.6,48.5c0.4,4.5,3.8,0.4,5.3,1.8c-0.8,0.6-1.4,1.4-2.3,1.7c-1.4,0.5-3.2,2.2-4.4,0.7
			C249.3,51.5,250.4,49.7,251.6,48.5z"/>
		<path class="st1" d="M264.8,41.2c0.2-3.3-2.2-3.2-4.4-3.2c0.4-0.3,0.7-0.8,1.1-0.9c1.7-0.3,3.7-2.3,4.9-0.7
			C267.4,37.8,266.3,40,264.8,41.2z"/>
		<path class="st1" d="M213.9,66c-2.8,1.1-5.1,3.4-8.4,3C208,67.2,210.1,64.3,213.9,66z"/>
		<path class="st1" d="M66.4,146.2c4.2-0.2,8.3,0.7,12.3,1.8C74.4,148.9,70.2,148.5,66.4,146.2z"/>
		<path class="st1" d="M282.8,187c-2.9,0.5-1.9,2.9-2.2,4.6c-0.5-0.8-1.1-1.6-1.4-2.4c-0.4-1.3-1.5-3.1,0-3.9
			C280.4,184.6,281.9,185.7,282.8,187z"/>
		<path class="st1" d="M223.6,164.2c3,0,5.7,0.6,7.1,3.7C227.8,167.6,225.5,166.3,223.6,164.2z"/>
		<path class="st1" d="M198.5,36.1c-2.8-1.7-2.3-4.6-2.7-7.1C197.9,30.9,198.3,33.4,198.5,36.1z"/>
		<path class="st1" d="M253.9,167.1c2.3,1.8,3.8,4.1,3.7,7.1C255.5,172.3,254.4,169.9,253.9,167.1z"/>
		<path class="st1" d="M172.4,160.4c2.7,0.1,5.1,0.7,6.2,3.5C176.2,163.4,173.9,162.6,172.4,160.4z"/>
		<path class="st1" d="M89.3,97.7c1.1-0.9,2.3-1.7,3.4-2.6c0.9,2.2,0,4-1.7,5C90.3,100.5,89.4,98.9,89.3,97.7z"/>
		<path class="st1" d="M66.4,160.2c2.3,1.7,3.2,4.1,3.3,6.9C67.7,165.2,66.4,163,66.4,160.2z"/>
		<path class="st1" d="M92.9,59.9c-3.8,0.6-0.9,4.7-3.2,6.2c-0.1-1.8-0.3-3.6-0.3-5.4c0-0.9-0.4-2.2,0.8-2.5
			C91.5,57.8,92.2,59,92.9,59.9z"/>
		<path class="st1" d="M225.7,160.3c-0.7,1.3-1.4,2.6-2.1,3.9c-1-0.5-2.7-1.1-2.4-2C221.8,160.3,224.1,160.8,225.7,160.3z"/>
		<path class="st1" d="M143.6,187.1c-2.9-1.6-2.3-4.6-2.8-7.1C142.5,182,143.5,184.4,143.6,187.1z"/>
		<path class="st1" d="M299.7,170.2c-1.9,1.4-3.6,3-6.2,2.5C295,170.7,297.1,169.7,299.7,170.2z"/>
		<path class="st1" d="M55.7,82c0-1.7,2.3-2.3,2.1-4.1c1.1,0.7,2.1,1.4,2.7,3C58.9,81.4,57.5,82.2,55.7,82z"/>
		<path class="st1" d="M123.9,37c-3.5,0.2-1.3,3.9-3.1,5c-0.1-1.3-0.3-2.6-0.2-4c0-0.9-0.4-2.2,0.6-2.7
			C122.6,34.9,123.2,36.2,123.9,37z"/>
		<path class="st1" d="M257.7,113.1c-1.4-0.4-2.7-0.8-4.1-1.2c1.2-1.2,2.6-2.4,4.2-1.8C259.1,110.6,258,112.1,257.7,113.1z"/>
		<path class="st1" d="M288.8,97.1c1.6,0.9,0.3,4,3.1,4.1c-0.8,0.8-1.8,2.4-2.7,1.5C287.4,101.2,288.6,99,288.8,97.1z"/>
		<path class="st1" d="M122,93.1c2.6,0.8,2.7,2.9,2.6,5.1C123,96.9,122.5,95,122,93.1z"/>
		<path class="st1" d="M241.7,167c0-1,0.1-2,0.1-3c1.1,0.5,2.8,0.9,2.6,2.3C244.2,167.8,242.7,167.1,241.7,167z"/>
		<path class="st1" d="M217.8,34.2c0-1.9-0.5-4,2.3-4.6C219.8,31.4,219.3,33.1,217.8,34.2z"/>
		<path class="st1" d="M243.4,125.9c1.2,0.4,2.3,0.8,3.5,1.2c-1,1-2.3,2.2-3.6,1.6C242.2,128.3,242.5,126.9,243.4,125.9z"/>
		<path class="st1" d="M186,125.3c0.1-2.1,0-4.3,2.5-5.2C188,122,187.8,124.1,186,125.3z"/>
		<path class="st1" d="M117.6,42.1c-1.3,0-2.7,0-4-0.1c1-1.2,2-2.5,3.9-2.2C117.6,39.9,117.6,41.3,117.6,42.1z"/>
		<path class="st1" d="M256.5,205.3c2.2-0.2,3.2,0.8,3.1,3C258.1,207.8,257.1,206.7,256.5,205.3z"/>
		<path class="st1" d="M126.9,8c-1.4,0-2.8,0-4.1,0.1C123.3,5.2,123.5,5.2,126.9,8z"/>
		<path class="st1" d="M261.7,91c0.5-2.7,2.6-1.7,4.2-1.8C264.9,90.8,263.3,90.8,261.7,91z"/>
		<path class="st1" d="M268.5,56.8c0.2,2.3-0.8,3.3-3,3.1C265.7,58.1,266.7,57.1,268.5,56.8z"/>
		<path class="st1" d="M246.6,117.9c-0.2,1.6,0.9,3.9-2.1,4.1C244.9,120.5,245.4,119,246.6,117.9z"/>
		<path class="st1" d="M163.5,118.4c1.4-1.8,2.5-1.8,3.2,0.5C165.6,119.1,164.4,119.5,163.5,118.4z"/>
		<path class="st1" d="M236.1,62.2c2.4,0.4,2.7,2.1,2.5,4C237.2,65.2,236.7,63.7,236.1,62.2z"/>
		<path class="st1" d="M259.9,198.8c-1.6,0.5-3,0.2-4-1.3C257.5,197.1,258.9,197.4,259.9,198.8z"/>
		<path class="st1" d="M61.6,191.8c-0.1,1.6,0.9,3.8-1.9,4.3C59.9,194.5,60.5,193,61.6,191.8z"/>
		<path class="st1" d="M29.9,154.9c-2-0.3-4.1-0.2-5.1-2.5C26.6,153,28.6,153.2,29.9,154.9z"/>
		<path class="st1" d="M136,100.9c-2.4-0.4-2.3-2.2-2.2-4C135,97.9,135.9,99.2,136,100.9z"/>
		<path class="st1" d="M171.6,44.5c-0.4,2.4-2.1,2.7-4.1,2.5C168.5,45.7,170.1,45.1,171.6,44.5z"/>
		<path class="st1" d="M23.6,160.1c1.5-0.1,3.1-0.2,3.1,2.1C25.3,162,24.3,161.2,23.6,160.1z"/>
		<path class="st1" d="M70.7,193.1c0-1.5,0-3,2.2-2.9C72.5,191.4,71.8,192.4,70.7,193.1z"/>
		<path class="st1" d="M94.4,195.2c2.3-0.1,2.4,1.4,2.2,3C95.3,197.6,94.5,196.6,94.4,195.2z"/>
		<path class="st1" d="M241.6,55.1c-2-0.1-1.9-1.6-1.9-3.1C240.7,52.8,241.6,53.7,241.6,55.1z"/>
		<path class="st1" d="M111.7,92.2c0.1-2.2,1.7-2.1,3.2-2C114.1,91.2,113,91.9,111.7,92.2z"/>
		<path class="st1" d="M72.1,109.3c-1.6-1-2.3-2.5-2.3-4.4C71.4,106,72,107.5,72.1,109.3z"/>
		<path class="st1" d="M266.7,89c0.2-2.1,1.8-1.9,3.2-1.8C269.1,88.2,268.2,89.1,266.7,89z"/>
		<path class="st1" d="M237.9,50c-1,0-2,0-3,0.1c0-0.8-0.3-1.8,0.9-1.8C236.9,48.3,237.4,49.2,237.9,50z"/>
		<path class="st1" d="M100.8,50c-2.2,0-2.1-1.5-2.1-3C99.8,47.8,100.5,48.8,100.8,50z"/>
		<path class="st1" d="M137.6,57.1c2.2,0,2.2,1.5,2.1,3.1C138.5,59.5,137.5,58.7,137.6,57.1z"/>
		<path class="st1" d="M122,121.4c-0.3-1.6,0.4-2.2,1.9-2.2C123.6,120.2,123,121,122,121.4z"/>
		<path class="st1" d="M124.6,98.2c1.5,0,2.2,0.6,1.8,2.2C125.3,100,124.8,99.2,124.6,98.2z"/>
		<path class="st1" d="M47.5,159.1c-2-0.3-1.7-1.7-1.7-3.1C46.9,156.7,47.2,157.9,47.5,159.1z"/>
		<path class="st1" d="M116.8,178.1c-0.8,0-1.6-0.1-2.1-0.9c0.5-0.3,1-1,1.4-0.9C117.1,176.4,116.9,177.4,116.8,178.1z"/>
		<path class="st1" d="M132.8,62c-1.5-0.1-3.4,0.7-4-1.6C130.3,60.5,131.8,60.6,132.8,62z"/>
		<path class="st1" d="M135.9,53.1c1.4,0.3,2.3,0.7,0.7,2C136.4,54.5,136.2,53.8,135.9,53.1z"/>
		<path class="st1" d="M180.8,131.3c-0.1-1.5,0.5-2.2,2-2.1C182.6,130.3,182,131,180.8,131.3z"/>
		<path class="st1" d="M94.3,53.3c2.2,0.7,1.2,2.5,1.3,3.9C94.5,56.1,93.9,54.9,94.3,53.3z"/>
		<path class="st1" d="M167.7,70.2c-0.8,1.1-2,0.9-3.1,0.7C165.4,69.7,166.5,69.9,167.7,70.2z"/>
		<path class="st1" d="M181.7,47.2c0-1.3,0.6-2,1.9-2.1C183,45.8,182.4,46.5,181.7,47.2z"/>
		<path class="st1" d="M63.6,189c0.1,1.2-0.4,2-1.7,2.1C62.5,190.4,63.1,189.7,63.6,189z"/>
		<path class="st1" d="M68.7,194.8c0.1-1.2,0.9-1.7,2-1.7C70.3,194,69.7,194.6,68.7,194.8z"/>
		<path class="st1" d="M268.7,104.6c-0.2,1.2-1,1.5-2.1,1.5C267.1,105.3,267.6,104.6,268.7,104.6z"/>
		<path class="st1" d="M112.7,119.1c0,1.2-0.5,1.9-1.7,2C111.5,120.4,112.1,119.7,112.7,119.1z"/>
		<path class="st1" d="M175.7,38.8c0.1-1.3,0.9-1.7,2.1-1.7C177.1,37.7,176.4,38.3,175.7,38.8z"/>
		<path class="st1" d="M118.7,86.1c0.5-0.5-1.2-2.4,1.2-1.8C119.5,85,119.1,85.5,118.7,86.1z"/>
		<path class="st1" d="M262.8,45.3c-0.1-0.9,0-1.7,1-2.1C263.7,43.9,263.8,44.8,262.8,45.3z"/>
		<path class="st1" d="M286.7,189.1c-0.9-0.1-1.7-0.2-2-1.2C285.4,188.3,286.1,188.7,286.7,189.1z"/>
		<path class="st1" d="M19.5,155.2c1,0.3,1.2,1.1,1.2,1.9C20.3,156.5,19.9,155.8,19.5,155.2z"/>
		<path class="st1" d="M35.4,155.2c1.1,0.2,1.2,1.1,1.2,2C35.9,156.8,35.5,156.1,35.4,155.2z"/>
		<path class="st1" d="M284.9,188c-0.9,0.1-1.7,0-2.1-1C283.5,187.1,284.4,187.1,284.9,188z"/>
		<path class="st1" d="M38.9,102c-1.2-0.4-1.3-1.1-0.3-1.9C38.7,100.8,38.8,101.4,38.9,102z"/>
		<path class="st1" d="M102.6,155.1c0.9,0,1.8,0.2,2.1,1.3C103.9,156,103.2,155.6,102.6,155.1z"/>
		<path class="st1" d="M114.5,117.8c-0.1,1.1-0.9,1.2-1.8,1.3C113.1,118.3,113.6,117.8,114.5,117.8z"/>
		<path class="st1" d="M32.7,157.1c-0.9,0-1.7-0.2-1.8-1.3C31.8,155.8,32.3,156.3,32.7,157.1z"/>
		<path class="st1" d="M195.9,29c-1-0.3-1.2-1.1-1.2-2C195.1,27.7,195.5,28.4,195.9,29z"/>
		<path class="st1" d="M157.6,76c-0.2,0.4,0.7,1.8-0.9,1.1C157,76.7,157.3,76.4,157.6,76z"/>
		<path class="st1" d="M135.4,186.2c1.1,0.2,1.2,1,1.2,1.9C135.9,187.8,135.5,187.1,135.4,186.2z"/>
		<path class="st1" d="M169.4,157.2c1,0.2,1.2,1,1.3,1.8C170.3,158.5,169.9,157.9,169.4,157.2z"/>
		<path class="st1" d="M220.7,69.1c0-1,0.4-1.8,1.4-2.2C222.3,68,221.5,68.6,220.7,69.1z"/>
		<path class="st1" d="M128.7,68.1c0.9,0,1.7,0.2,2,1.2C130,68.9,129.3,68.5,128.7,68.1z"/>
		<path class="st1" d="M130.5,69.2c1-0.1,1.8,0.1,2.1,1.2C131.9,70,131.2,69.6,130.5,69.2z"/>
		<path class="st1" d="M134.4,184.3c1.2,0.2,1.3,1,1.1,2C134.6,185.9,134.4,185.2,134.4,184.3z"/>
		<path class="st1" d="M191.8,135.6c0.3-1.3,1.4-1.4,2.4-1.3C193.4,134.7,192.6,135.1,191.8,135.6z"/>
		<path class="st1" d="M217.8,71.3c0.3-1,1-1.2,1.9-1.2C219,70.5,218.4,70.9,217.8,71.3z"/>
		<path class="st1" d="M164.6,70.9c-0.4,1.2-1.4,1.2-2.5,1.1C162.8,71.2,163.6,70.9,164.6,70.9z"/>
		<path class="st1" d="M165.8,22.2c0-0.9,0.1-1.7,1.2-2C166.9,21.1,166.5,21.8,165.8,22.2z"/>
		<path class="st1" d="M170.7,159.1c0.9,0.1,1.6,0.2,1.8,1.3C171.7,160.3,171.1,159.9,170.7,159.1z"/>
		<path class="st1" d="M184.8,127.3c-0.1-0.9,0-1.8,1.2-2C186,126.2,185.6,126.8,184.8,127.3z"/>
		<path class="st1" d="M81.4,203.2c0.9,0.2,1.2,1,1.3,1.8C81.8,204.8,81.6,203.9,81.4,203.2z"/>
		<path class="st1" d="M126.7,34.1c0.9,0,1.7,0.3,1.9,1.3C128,35,127.3,34.5,126.7,34.1z"/>
		<path class="st1" d="M253.6,111.9c-0.3,1.1-1.1,1.2-2,1.2C252,112.3,252.7,111.9,253.6,111.9z"/>
		<path class="st1" d="M263.8,43.2c-0.1-0.9,0.1-1.7,1.1-2.1C264.8,42,264.8,42.9,263.8,43.2z"/>
		<path class="st1" d="M261.9,200c-0.9,0.1-1.8,0-2-1.1C260.8,198.8,261.4,199.1,261.9,200z"/>
		<path class="st1" d="M254.4,87.8c0,1-0.6,1.2-1.4,1.3C253.1,88.3,253.6,87.9,254.4,87.8z"/>
		<path class="st1" d="M177.8,50.3c0.3-1,1.1-1.2,1.9-1.2C179.1,49.5,178.4,49.9,177.8,50.3z"/>
		<path class="st1" d="M313.3,172.4c-0.9-0.4-1.4-1-1.5-2C313.2,170.4,313.9,170.9,313.3,172.4z"/>
		<path class="st1" d="M95.5,57.1c0.9,0.3,1.1,1.1,1.2,2C96.3,58.4,95.9,57.8,95.5,57.1z"/>
		<path class="st1" d="M180.8,33.3c0-0.9,0.1-1.8,1.1-2.1C181.8,32,181.7,32.9,180.8,33.3z"/>
		<path class="st1" d="M267,205.9c-1.2-0.2-1.3-1-1.2-2C266.7,204.3,267,205,267,205.9z"/>
		<path class="st1" d="M216.7,36.1c0-0.9,0.2-1.6,1.2-1.9C217.5,34.8,217.1,35.5,216.7,36.1z"/>
		<path class="st1" d="M177,154c-0.9,0.1-1.8,0-2.2-1C175.6,153.1,176.5,153.1,177,154z"/>
		<path class="st1" d="M45,154.9c-1.1-0.2-1.2-1.1-1.2-2C44.5,153.4,44.9,154.1,45,154.9z"/>
		<path class="st1" d="M246.7,127.2c0.4-1,1.2-1.1,2.1-1C248.4,127.1,247.5,127.1,246.7,127.2z"/>
		<path class="st1" d="M134.9,63c-0.9,0-1.8-0.1-2.2-1.1C133.6,62.1,134.5,62,134.9,63z"/>
		<path class="st1" d="M199.8,129.3c0.2-0.4-0.8-1.9,0.9-1.1C200.4,128.5,200.1,128.9,199.8,129.3z"/>
		<path class="st1" d="M179.8,18.4c0.3-0.4-0.8-1.9,0.9-1.2C180.4,17.6,180.1,18,179.8,18.4z"/>
		<path class="st1" d="M256.9,50.4c0.2-1.2,1-1.3,2-1.2C258.4,50.1,257.8,50.4,256.9,50.4z"/>
		<path class="st1" d="M180.6,22.9c-0.3,1-1,1.2-1.9,1.2C179.3,23.7,180,23.3,180.6,22.9z"/>
		<path class="st1" d="M113.4,152.1c-0.8-0.1-1.5-0.3-1.7-1.2C112.5,151,113.3,151.1,113.4,152.1z"/>
		<path class="st1" d="M137.8,177c-0.3-0.4-0.7-0.8-1-1.1C137.2,176.3,137.5,176.7,137.8,177z"/>
		<path class="st1" d="M139.9,179c-0.4-0.3-0.8-0.7-1.1-1C139.1,178.3,139.5,178.7,139.9,179z"/>
		<path class="st1" d="M131.6,13.1c-0.3-0.4-0.6-0.7-0.8-1.1C131,12.3,131.3,12.7,131.6,13.1z"/>
		<path class="st1" d="M138.8,178c-0.4-0.4-0.7-0.7-1.1-1.1C138.1,177.3,138.5,177.7,138.8,178z"/>
		<path class="st1" d="M140.8,180.1c-0.3-0.4-0.7-0.8-1-1.1C140.1,179.3,140.5,179.7,140.8,180.1z"/>
		<path class="st1" d="M258.8,49.3c0.4-0.4,0.8-0.7,1.2-1.1C259.6,48.5,259.2,48.9,258.8,49.3z"/>
		<path class="st1" d="M269.6,56c-0.4,0.3-0.8,0.7-1.1,1C268.9,56.6,269.3,56.3,269.6,56z"/>
		<path class="st1" d="M139.6,60.1c0.3,0.4,0.7,0.8,1,1.3C140.3,61,139.9,60.6,139.6,60.1z"/>
		<path class="st1" d="M265.6,59.9c-0.4,0.4-0.8,0.9-1.2,1.3C264.8,60.8,265.2,60.4,265.6,59.9z"/>
		<path class="st1" d="M94.1,61c-0.4-0.4-0.9-0.7-1.3-1.1C93.2,60.3,93.7,60.6,94.1,61z"/>
		<path class="st1" d="M95.9,63.2c-0.4-0.5-0.7-1-1.1-1.5C95.2,62.2,95.5,62.7,95.9,63.2z"/>
		<path class="st1" d="M267.7,207.1c-0.3-0.4-0.6-0.8-0.8-1.2C267.6,206,267.7,206.5,267.7,207.1z"/>
		<path class="st1" d="M255.4,204c0.4,0.4,0.8,0.9,1.2,1.3C256.2,204.8,255.8,204.4,255.4,204z"/>
		<path class="st1" d="M265.9,204c-0.3-0.4-0.7-0.7-1-1.1C265.2,203.3,265.5,203.6,265.9,204z"/>
		<path class="st1" d="M264.9,202.9c-0.6-0.1-1-0.4-1.1-1.1C264.6,201.9,264.9,202.3,264.9,202.9z"/>
		<path class="st1" d="M264,201.9c-0.6-0.1-1-0.4-1.1-1C263.5,200.9,263.9,201.2,264,201.9z"/>
		<path class="st1" d="M262.9,200.9c-0.4-0.3-0.8-0.7-1.1-1C262.2,200.3,262.5,200.6,262.9,200.9z"/>
		<path class="st1" d="M138.9,66c-0.4-0.4-0.7-0.9-1.1-1.3C138.2,65.1,138.5,65.6,138.9,66z"/>
		<path class="st1" d="M234.7,199c-0.4,0.3-0.9,0.7-1.3,1C233.8,199.7,234.2,199.3,234.7,199z"/>
		<path class="st1" d="M129.9,11c-0.4-0.4-0.7-0.7-1.1-1.1C129.2,10.3,129.5,10.6,129.9,11z"/>
		<path class="st1" d="M96.5,198.2c0.4,0.3,0.8,0.6,1.2,0.9C97.3,198.8,96.9,198.5,96.5,198.2z"/>
		<path class="st1" d="M140,67c-0.4-0.4-0.8-0.7-1.2-1.1C139.2,66.3,139.6,66.6,140,67z"/>
		<path class="st1" d="M128.9,10c-0.4-0.4-0.7-0.8-1.1-1.2C128.2,9.2,128.5,9.6,128.9,10z"/>
		<path class="st1" d="M130.9,12c-0.4-0.4-0.7-0.7-1.1-1.1C130.1,11.3,130.5,11.7,130.9,12z"/>
		<path class="st1" d="M64.6,187.9c-0.4,0.4-0.7,0.7-1.1,1.1C63.9,188.7,64.3,188.3,64.6,187.9z"/>
		<path class="st1" d="M238.6,66.1c0.3,0.4,0.7,0.7,1,1.1C239.3,66.9,238.9,66.5,238.6,66.1z"/>
		<path class="st1" d="M116.7,188.1c-0.7-0.3-0.8-0.6-0.1-1C116.7,187.4,116.7,187.8,116.7,188.1z"/>
		<path class="st1" d="M65.6,186.8c-0.4,0.4-0.7,0.8-1.1,1.2C64.9,187.6,65.3,187.2,65.6,186.8z"/>
		<path class="st1" d="M158.6,74.8c-0.3,0.4-0.7,0.8-1,1.2C157.9,75.7,158.3,75.2,158.6,74.8z"/>
		<path class="st1" d="M127.4,101.3c0.7,0,1,0.4,1.1,1C127.9,102.3,127.5,102,127.4,101.3z"/>
		<path class="st1" d="M164.8,23.4c0.3-0.4,0.7-0.8,1-1.2C165.5,22.5,165.1,23,164.8,23.4z"/>
		<path class="st1" d="M128.5,102.3c0.4,0.3,0.8,0.7,1.1,1C129.2,102.9,128.9,102.6,128.5,102.3z"/>
		<path class="st1" d="M113.7,42c-0.4,0.3-0.8,0.7-1.2,1C112.8,42.7,113.2,42.3,113.7,42z"/>
		<path class="st1" d="M244.9,151c-0.3-0.4-0.7-0.8-1-1.1C244.2,150.3,244.5,150.7,244.9,151z"/>
		<path class="st1" d="M69.9,105c-0.4-0.4-0.7-0.8-1.1-1.1C69.1,104.3,69.5,104.6,69.9,105z"/>
		<path class="st1" d="M243.9,149.9c-0.6-0.1-1-0.4-1.1-1.1C243.6,148.9,243.9,149.3,243.9,149.9z"/>
		<path class="st1" d="M34.5,109c0.4,0.5,0.7,0.9,1.1,1.4C35.3,109.9,34.9,109.5,34.5,109z"/>
		<path class="st1" d="M39.9,150c-0.4-0.3-0.8-0.6-1.2-0.8C39.1,149.5,39.5,149.8,39.9,150z"/>
		<path class="st1" d="M243,148.9c-0.6,0-1-0.4-1.1-1C242.5,147.9,242.9,148.2,243,148.9z"/>
		<path class="st1" d="M241.9,147.9c-0.4-0.3-0.8-0.6-1.2-1C241.1,147.3,241.5,147.6,241.9,147.9z"/>
		<path class="st1" d="M251.7,113c-0.4,0.3-0.8,0.7-1.1,1C250.9,113.7,251.3,113.3,251.7,113z"/>
		<path class="st1" d="M250.6,113.9c-0.4,0.4-0.7,0.7-1.1,1.1C249.9,114.6,250.2,114.3,250.6,113.9z"/>
		<path class="st1" d="M259.7,38.2c-0.3,0.3-0.6,0.6-0.9,0.9C258.8,38.4,259.1,38.2,259.7,38.2z"/>
		<path class="st1" d="M249.6,114.9c-0.4,0.4-0.7,0.7-1.1,1.1C248.9,115.6,249.2,115.3,249.6,114.9z"/>
		<path class="st1" d="M64.8,145.1c0.3,0.3,0.6,0.6,0.9,0.9C65.1,146,64.7,145.8,64.8,145.1z"/>
		<path class="st1" d="M236,145.6c-0.4-0.5-0.6-1.1,0-1.5c0.2-0.1,0.7,0.2,1.1,0.3C236.8,144.7,236.4,145.1,236,145.6z"/>
		<path class="st1" d="M248.6,115.9c-0.4,0.4-0.8,0.7-1.2,1.1C247.8,116.7,248.2,116.3,248.6,115.9z"/>
		<path class="st1" d="M162.7,25.2c0.4-0.3,0.8-0.7,1.3-1C163.6,24.5,163.2,24.9,162.7,25.2z"/>
		<path class="st1" d="M267.8,117.4c0.3-0.4,0.6-0.9,0.8-1.3C268.4,116.6,268.1,117,267.8,117.4z"/>
		<path class="st1" d="M115.6,116.9c-0.4,0.3-0.8,0.7-1.1,1C114.5,117.2,115,117,115.6,116.9z"/>
		<path class="st0" d="M203.7,119.1c0.1-0.1,0.1-0.2,0.2-0.3C203.8,118.9,203.7,119,203.7,119.1
			C203.6,119.1,203.7,119.1,203.7,119.1z"/>
		<path class="st1" d="M196.8,132.5c0.4-0.4,0.7-0.9,1.1-1.3C197.5,131.6,197.2,132.1,196.8,132.5z"/>
		<path class="st1" d="M121.8,29.1c0.3,0.4,0.6,0.7,0.9,1.1C122.4,29.8,122.1,29.5,121.8,29.1z"/>
		<path class="st1" d="M197.8,131.3c0.4-0.4,0.7-0.7,1.1-1.1C198.6,130.6,198.2,131,197.8,131.3z"/>
		<path class="st1" d="M198.8,130.3c0.3-0.4,0.7-0.8,1-1.1C199.5,129.5,199.2,129.9,198.8,130.3z"/>
		<path class="st1" d="M182.8,129.2c0.4-0.4,0.7-0.7,1.1-1.1C183.5,128.5,183.1,128.9,182.8,129.2z"/>
		<path class="st1" d="M183.8,128.2c0.4-0.4,0.7-0.7,1.1-1.1C184.5,127.5,184.1,127.9,183.8,128.2z"/>
		<path class="st1" d="M248.8,126.3c0.1-0.6,0.3-0.9,0.8-0.4C249.4,126.2,249.2,126.3,248.8,126.3z"/>
		<path class="st1" d="M120.9,122.4c0-0.6,0.4-1,1-1.1C121.9,121.9,121.6,122.3,120.9,122.4z"/>
		<path class="st1" d="M244.6,121.9c-0.3,0.4-0.5,0.8-0.8,1.1C243.7,122.4,244.1,122.1,244.6,121.9z"/>
		<path class="st1" d="M119.8,123.6c0.4-0.5,0.7-1,1.1-1.4C120.5,122.7,120.2,123.2,119.8,123.6z"/>
		<path class="st1" d="M311.8,174.3c0.4-0.4,0.9-0.9,1.3-1.3C313.2,173.9,312.5,174.1,311.8,174.3z"/>
		<path class="st1" d="M257.6,84.9c-0.4,0.3-0.8,0.7-1.1,1C256.9,85.6,257.2,85.3,257.6,84.9z"/>
		<path class="st1" d="M270.8,86.5c0.4-0.4,0.7-0.9,1.1-1.3C271.5,85.6,271.2,86,270.8,86.5z"/>
		<path class="st1" d="M256.5,85.9c-0.1,0.6-0.4,1-1.1,1C255.5,86.2,255.9,85.9,256.5,85.9z"/>
		<path class="st1" d="M255.5,86.8c0,0.7-0.4,1-1,1.1C254.5,87.2,254.8,86.9,255.5,86.8z"/>
		<path class="st1" d="M261.8,46.3c0.4-0.4,0.7-0.8,1.1-1.2C262.5,45.6,262.1,45.9,261.8,46.3z"/>
		<path class="st1" d="M166.8,20.3c0.3-0.4,0.7-0.8,1-1.3C167.5,19.5,167.2,19.9,166.8,20.3z"/>
		<path class="st1" d="M124.9,90.9c-0.4-0.2-0.8-0.5-1.2-0.7C124.3,90.2,124.8,90.2,124.9,90.9z"/>
		<path class="st1" d="M125.8,90.9c-0.2,0.2-0.4,0.4-0.6,0.6c-0.1-0.3-0.1-0.5-0.2-0.8C125.3,90.6,125.5,90.7,125.8,90.9z"/>
		<path class="st1" d="M183.2,162.2c-0.7-0.2-1.3-0.5-0.3-1.2C183,161.4,183.1,161.8,183.2,162.2z"/>
		<path class="st1" d="M131.9,95c-0.4-0.4-0.7-0.8-1.1-1.2C131.1,94.2,131.5,94.6,131.9,95z"/>
		<path class="st1" d="M133.1,96c-0.4-0.4-0.9-0.7-1.3-1.1C132.2,95.3,132.7,95.6,133.1,96z"/>
		<path class="st1" d="M241.5,159.3c0.4,0.4,0.7,0.7,1.1,1.1C241.9,160.3,241.5,159.9,241.5,159.3z"/>
		<path class="st1" d="M111.6,43.8c-0.4,0.4-0.8,0.8-1.2,1.2C110.8,44.6,111.2,44.2,111.6,43.8z"/>
		<path class="st1" d="M240.5,158.2c0.4,0.4,0.7,0.7,1.1,1.1C241.2,159,240.8,158.6,240.5,158.2z"/>
		<path class="st1" d="M181.8,159.1c-0.3-0.4-0.7-0.8-1-1.1C181.1,158.3,181.5,158.7,181.8,159.1z"/>
		<path class="st1" d="M293.8,99.3c0.4-0.4,0.9-0.7,1.3-1.1C294.7,98.6,294.2,98.9,293.8,99.3z"/>
		<path class="st1" d="M292.8,100.3c0.4-0.4,0.7-0.7,1.1-1.1C293.5,99.6,293.2,99.9,292.8,100.3z"/>
		<path class="st1" d="M239.4,157.2c0.4,0.4,0.8,0.7,1.1,1.1C240.2,157.9,239.8,157.5,239.4,157.2z"/>
		<path class="st1" d="M180.9,158c-0.3-0.4-0.7-0.7-1-1.1C180.2,157.2,180.6,157.6,180.9,158z"/>
		<path class="st1" d="M179.9,156.9c-0.4-0.4-0.7-0.7-1.1-1.1C179.5,155.9,179.9,156.3,179.9,156.9z"/>
		<path class="st1" d="M168.5,156.2c0.3,0.4,0.7,0.8,1,1.1C169.2,156.9,168.9,156.5,168.5,156.2z"/>
		<path class="st1" d="M106.7,157.3c0.7-1.1,0.9-0.4,1.2,0.3C107.4,157.5,107,157.4,106.7,157.3z"/>
		<path class="st1" d="M178.9,156c-0.4-0.5-0.7-1-1.1-1.4C178.2,155,178.5,155.5,178.9,156z"/>
		<path class="st1" d="M45.8,156c-0.3-0.4-0.7-0.8-1-1.2C45.2,155.3,45.5,155.7,45.8,156z"/>
		<path class="st1" d="M30.9,155.9c-0.4-0.3-0.8-0.7-1.1-1C30.2,155.2,30.6,155.6,30.9,155.9z"/>
		<path class="st1" d="M126.4,100.3c0.7,0,1,0.4,1.1,1C126.8,101.3,126.5,101,126.4,100.3z"/>
		<path class="st1" d="M34.5,154.2c0.4,0.4,0.7,0.8,1.1,1.1C35.2,154.9,34.8,154.5,34.5,154.2z"/>
		<path class="st1" d="M71,154c-0.4-0.4-0.8-0.7-1.2-1.1C70.2,153.3,70.6,153.7,71,154z"/>
		<path class="st1" d="M291.7,101.2c0.4-0.3,0.8-0.7,1.1-1C292.5,100.5,292.1,100.9,291.7,101.2z"/>
		<path class="st1" d="M69.9,153c-0.4-0.4-0.7-0.7-1.1-1.1C69.2,152.3,69.5,152.6,69.9,153z"/>
		<path class="st1" d="M66.9,102c-0.4-0.4-0.8-0.9-1.1-1.3C66.2,101.2,66.6,101.6,66.9,102z"/>
		<path class="st2" d="M297,157c-1.8-1.1-2.2,0.8-2.9,1.7c-7.7,10.7-18.1,17.8-30.4,22.3c-2.8,1-5.6,2.9-8.4,2.8
			c-8.5-0.3-17.1-0.2-25.6-1.7c-9.6-1.7-19.3-2.2-29.2-2.4c6.2-5.9,11.1-12.8,17-18.6c5.2-5.1,8.8-11.3,12.7-17.3
			c1.6-2.4,2.9-3.3,5.4-3.7c14.4-2.6,27.4-8.1,36.8-20c0.6-0.8,2-1.6,0.5-3.3c-5.2,5.2-10.9,9.7-17.8,12.2
			c-5.9,2.1-11.7,5.5-18.8,3.9c8.4-17.4,11.7-35.5,12.4-54.1c0-1.2,1.1-3.5-1.2-3.6c-2-0.2-1.9,2-2,3.4
			c-0.8,15.9-5.4,30.8-13.1,44.6c-10.9,19.5-25,35.9-44.4,47.5c-6,3.6-14.8,2.9-18.2-2c-4.5-6.4-8.8-12.9-12.4-19.9
			c-4.7-9.1-6.5-19.1-9.7-28.6c-1.7-5.1,0.8-8.7,6.2-10c20.8-5.1,35.3-17.8,43.8-37.4c0.6-1.4,1.9-2.8,0.4-4.8
			c-0.9,1.8-1.7,3.4-2.6,4.9c-5,8.7-10.8,16.7-19.5,22.1c-7.5,4.6-15.3,8.4-24.2,9.1c-2.6,0.2-3.6,0.1-3.4-3.2
			c0.8-14.6,3.9-28.8,8.3-42.7c0.5-1.6,2.6-4-0.6-5c-2.6-0.8-2.6,2.1-3.2,3.6c-3.4,8.4-6.1,17.1-8.4,25.9c-3.7,14.4-6,28.9-4.3,43.9
			c1,9.1,3.6,17.7,6.5,26.7c-7.8-3.1-14.9-6.4-22.1-9.5c-5.1-2.2-10.1-5.4-15-8.3c-8-4.8-14.2-11.7-21.7-17c-0.6-0.4-2-2.5-0.4-3.9
			c1.8-1.7,2.6-4.2,4.2-5.9c7.9-8.5,10.2-19,11.8-29.9c0.2-1.2,0-2.4-1.2-3.4c-0.3,1.3-0.5,2.3-0.6,3.3
			c-1.4,12.2-7.3,22.2-15.5,31.1c-1.5,1.6-3.4,3-4.6,0.2c-1-2.4-2.7-4.1-3.9-6.2c-5.3-8.9-8.7-18.5-10.9-28.5
			c-0.2-0.9,0.3-2.4-1.2-2.2c-1.8,0.2-1,1.8-0.9,2.8c0.2,2.5,0.4,5,1,7.4c3.9,15.7,10,30.2,21.3,42.2c1.4,1.5,5.1,3.1,3.7,6.2
			c-1.2,2.7-4,0.4-6.1,0.6c-5.8,0.7-11.7,0.8-17.5-0.9c-6.4-1.8-12.3-4.4-18.1-7.7c-0.9,2.5,1,2.9,2.1,3.6
			c12.5,8.8,26.4,12.2,41.6,10.1c3.5-0.5,5.9,0.1,8.5,2.4c3.8,3.2,8.3,5.6,12.3,8.4c5.2,3.6,11,6.1,16.5,10
			c-6.3,2.1-12,3.9-17.6,6.1c-6.3,2.4-12.4,5.5-18.8,7.7c-10.5,3.6-21,4.4-31.4-0.6c-2.4-1.2-4.9-2.3-7.8-3.6c0.2,3,2.2,3.5,3.6,4.4
			c12.6,7.4,26,9.4,40.2,5.2c8.1-2.4,16.1-5.3,24.4-7c21-4.3,29.6,0.5,38.2,17.8c5,10,6.2,21.8,6.7,33.3c0.3,6.4,0.6,12.8,0,19.1
			c-0.7,7.8-3,15.2-5.2,22.7c-2.1,7.1-10.5,20.3-10.5,20.3l46.9-0.5c0,0-7-4-8-7.7c-3.6-14,1.5-28.9,0.1-43.3
			c-0.5-5.1-1.2-10.2-1-15.4c0.4-11.2,7.2-21.7,19-22.9c11.5-1.2,23,0,34.4-0.5c23.9-1.1,40.6-13.9,53.3-33
			C297.2,159.4,298.9,158.2,297,157z"/>
	</g>
	<path class="st3" d="M198.7,283.1c3,3.4,7.2,41.2,24.3,44.2c8.5,1.5,17.8,4.5,26,2.7c29.2-6.4,56.8-4.7,83.3,10.4
		c13.3,7.6,27.8,10.1,43.1,5.2c-9.7,5.9-20.2,6.4-30.6,3.8c-8.3-2-16.4-5.1-24.3-8.5c-15.7-6.6-31.7-9.5-48.7-5.7
		c14.1,11.5,30.2,15.6,50.4,12.6c-13.3,5.9-29.6,4.6-42.8-2.4s-26.7-7.3-42.5-1.9c22.5,13.8,49.5,4.8,69.8,19.2
		c-17-7.9-35.6-4-53-7.6s-34.2-10.1-51.3-15.3c-0.5,0.9-0.9,1.7-1.4,2.6c3.8,2.5,7.2,5.8,11.4,7.3c17.8,6.4,35.6,12.7,53.8,17.9
		c8.1,2.3,16.9,2.4,25.5,3.1c12.6,1,25.3,1.7,37.9,2.5c0,1.5,0,0.8-0.1,2.3H284c7.8,11.3,18.5,13.5,28.7,17
		c-12.1,0.5-22.2-4.4-31.6-11.6c-4.5-3.4-10.1-5.4-15.7-7.1c3.3,16.5,8.6,29.9,27.9,32.2c10.8,1.3,20.4,7,27.2,14.6
		c-17.3-6.3-35.2-12.8-55.5-20.2c2.1,10.6,4.1,20.5,6.1,30.4c-6.8-6.6-9.2-15.6-9.8-25.2c-0.2-3.7,0.2-7.5,0-11.2
		c-0.7-13.5-8.9-24.1-21.9-27.6c-9.7-2.5-19.5-4.4-29.9-5.8c12,11.4,32.7,14.6,32.9,36.6c-4.6-16.5-19.4-19.9-31.7-27.4
		c-9.6-5.8-16.5-16.2-24.6-24.5c-1.9-1.9-3.7-3.9-6.7-5.3c-1.8,10.8,0.4,20.4,8.2,27.9c4.5,4.3,10.3,7.1,15.6,10.5
		c7.7,5,16.1,9.1,23,15c12,10.2,13.6,21.1,7.1,35.6c-2.6,5.8-4.6,11.9-8.4,17.8c1.2-5.3,1.9-10.9,3.8-15.9c6.2-16.3,3.5-26-8.9-34.3
		c-6.1,7.9-11.7,16.1-18.3,23.4c-9.8,11-19,21.8-10.3,40c-8.6-9.4-9.3-20.9-2.7-30.8c5.1-7.6,11.3-14.5,16.5-22
		c7.5-10.9,5.2-17.4-7.8-22.6c-1.4,14-9.8,23.3-21.1,30.5c-12.5,7.9-12.5,7.9-18.7,20.7c-1.1-8.3,2.2-13.7,7.9-18
		c4.6-3.5,9.5-6.5,13.6-10.5c13.5-13.3,12.5-24.4-4.3-37c2.7,14.9-6,21.4-16.3,27.7c-12.1,7.4-15.5,18.1-12.2,33.8
		c3.6,17.2,3.1,21.3-4.2,30.8c6.6-14.9-2.4-28.2-3.4-42.4c-0.3-4.9,1.4-10,2.4-17.2c-8.3,4.9-17.1,8.2-23.2,14.2
		c-6.2,6.1-9.7,14.8-14.5,22.6c0.1-13.5,6.1-24.2,17.2-31.5c7.9-5.1,16.6-9,25.2-13c19-8.7,20.9-12.6,14.8-35.1
		c-7.5,7.8-14.4,14.8-20.6,21.3c-0.9-6.3,4.2-10.8,9.6-15.2c9.2-7.7,11.1-13,8-24.1c-7.3,3.4-14.9,6.1-21.4,10.4
		c-2.6,1.7-4.3,7.2-3.8,10.5c2.9,19.1-4.1,32.4-26.6,40.2c5.4-5.5,13.3-12.6,19.9-20.8c2.3-2.9,1.5-8.4,0.9-13.4
		c-8.9,12.8-21.9,17.2-35.3,22c-6.9,2.5-12.4,9-18.1,13.3c2.7-9.9,11.2-15.5,21.1-18.3c15.8-4.6,24-15.6,29.7-31.4
		c-16.4,3.5-32.5,3.2-43.8,18.7c-10.3,14.1-24.5,24-43.5,23.3c5.2-1.6,11.3-2,15.4-5c8.8-6.6,17.8-13.7,24.6-22.2
		c6.7-8.4,14-13.9,24.2-16.5c11.1-2.8,22.2-5.9,33.2-9.2c3.6-1.1,6.8-3.4,9.7-6.4c-24.3,0.7-50.7-9.3-69.2,16.5
		c-3.7,5.2-10.1,8.6-16,11.6c8.8-10,17.7-20,26.9-30.5c-13.3-2.1-24.7-0.5-34,10.4c-5.9,6.9-12.7,13.5-20.3,18.4
		c-6.6,4.3-14.9,6-23.2,7.2c21.6-2.9,30.8-20.5,43.8-35.6c-20.4-1.1-30.7,20.1-47.4,19c8.7-6.1,18.5-13.6,28.9-20
		c4.7-2.9,10.7-4.7,16.2-5c22.9-1.5,45.8-2.3,68.7-3.3c10.4-0.4,29.1-27.3,33.9-43.4C174.4,282.9,176.3,283.1,198.7,283.1z"/>
</g>
</svg>
